<?xml version="1.0" encoding="UTF-8"?>
<svg id="_Шар_2" data-name="Шар 2" xmlns="http://www.w3.org/2000/svg" viewBox="0 0 241.44 203.53">
  <defs>
    <style>
      .cls-1 {
        fill: #090807;
      }

      .cls-1, .cls-2, .cls-3, .cls-4, .cls-5 {
        stroke-width: 0px;
      }

      .cls-2 {
        fill: #191b26;
      }

      .cls-3 {
        fill: #c5c7c4;
      }

      .cls-4 {
        fill: #b1b4b2;
      }

      .cls-5 {
        fill: #dbd0d5;
      }
    </style>
  </defs>
  <g id="Home_Page" data-name="Home Page">
    <g>
      <path class="cls-2" d="M61.42,114.73c-.73.45-1.19.31-1.97.3-5.47,5.6-10.46,9.19-12.27,17.28-1.08-.01-7.04,1.24-6.36-.61,1.38-1.24,2.82-6.86,2.73-8.94.35-.82,10.67-10.59,12.43-12.88.66,2.83,2.1,5.46,5.46,4.85Z"/>
      <path class="cls-2" d="M199.92,132.31c-2.14.1-4.21.26-6.36.3.79-8.51-8.96-14.06-10-16.97-.63-1.76,1.66-4.23,2.73-5.46,2.43,3.53,10.84,10.83,11.21,11.67.43,3.46.97,7.27,2.42,10.46Z"/>
      <path class="cls-2" d="M199.92,70.79l-3.03,10.46-11.21,11.21c.18,1.94-1.15,3.89-1.21,4.09,1.07-3.39,1.07-6.97-3.33-7.27,5.01-6.76,11.79-9.21,12.73-18.49,2.08.02,3.92-.14,6.06,0Z"/>
      <g>
        <path class="cls-1" d="M193.56,132.61c2.16-.04,4.22-.2,6.36-.3,1.05-.05,7.34.18,7.58-.15-.18-5.03.24-10.13,0-15.15-.02-.33-2.29-3.99.76-5.91,2.37-1.5,21.39,0,25.91-.76v-17.58c-4.68-.82-22.99.96-25.61-1.06-3.93-3.02,1.71-19.72-3.03-20.91-.82-.21-3.96.11-5.61,0-2.14-.14-3.98.02-6.06,0-8.38-.08-22.35-.39-29.85,0-.12,0-.9.98-1.21,1.21-7.77-4.02-5.04,4.23-11.21,1.52-3.08-1.35-4.09-7.6,7.43-9.24V27.9q-10.08-.23-20.15-.45c-2.59,2.72-3.21,4.25-7.43,4.39l.15,7.73h10.61c4.02-5.11,9.83,3.31,4.85,6.67-3.74,2.52-6.59-1.91-7.43-.15v20.91c4.28,6.12,7.9,10.07,15.91,9.24,7.03-4.76,9.92,4.45,5.76,6.97-3.14,1.9-5.97-1.46-9.24-.76,3.48,5.5,10.79,10.09,9.4,15.76.28.63,13,.71,13.79.45,2.09-.68-.54-9.84,5.91-9.4,4.41.3,4.41,3.89,3.33,7.27-1.65,5.83-1.68,8.56,1.82,13.64-1.06,1.23-3.36,3.69-2.73,5.46-.84-.82-2.19.14-4.39-1.21-3.02-1.85-3.61-6.5-3.03-9.7q-7.35.08-14.7.15c1.51,6.94-5.69,10.52-9.4,15.76,2.97,1.47,11.06-2.36,11.21,3.64.19,7.35-9.92,1.92-14.09,2.88q-4.77,4.62-9.55,9.24v20l.45.45c2.54-1.16,7.86-.85,8.33,2.58,1.12,8.04-10.45,1.92-17.28,4.24v7.88c8.84,3.53,4.88,6.74,4.85,7.27-.4,7.43.3,14.98,0,22.43-1.1,3.51-22.79.33-26.22,2.27-.36-1.16-2.92-.09-4.09-2.58-.4-5.36.53-18.59,0-21.82-.1-.58-5.24-5.07,4.85-7.58v-7.88c-.3-.67-11.35-1.07-12.27.76-6.31,1.13-8.04-11.25,3.79-7.73l.3-19.7c-12.15-18.4-19.98-4.33-23.64-10.3-1.61-2.62.68-7.14,4.39-6.82,16.2,5.1-5-6.41-3.64-15.15h-13.64c-.63,5.3.46,7.06-4.39,10-3.35.61-4.8-2.02-5.46-4.85,1.06-1.38,1.81-3.12,3.03-4.39-1.98-2.08-1.13-5.07-.61-7.58-2.73-5.25-13.42-14.72-14.24-16.37-1.95-3.9-.68-12.15-9.7-10-.7,3.95,1.61,18.69-1.67,20.46-2.78,1.5-20.25,0-25,.76v17.58c31.89,1.51,26.13-6.6,26.37,21.82.63,1.63,5.51.59,6.67-.45-.68,1.85,5.28.6,6.36.61,8.51.08,21.9,1.07,29.85.3.51-.05,2.07-2.71,6.06,0,6.36-8.06,15.76,3.68-.45,6.52q.15,23.79.3,47.58c-2.66,3.85-6.09,7.05-9.09,10.61-1.93,2.29-2.03,5.77-6.21,5.3-5.09-.57-4.99-9.09.3-8.79l8.94-9.55.3-45.46c-8.92-.83-40.94.59-45.01-.15-6.95-1.27-2.41-16.68-3.94-21.82H6.71c-2.04,3.08-7.04-.4-6.52-4.7.02-.16.9-.76.91-.91.17-2.53.2-17.17,0-19.09-.06-.54-4.26-5.53,4.09-7.43,1.18.48,1.99,1.49,2.12,1.52,2.29.49,16.48-.36,21.22,0,1.26-4.4-2.2-19.82,2.73-21.52,3.01-1.04,38.47.16,45.46-.3l.15-37.13c3.65-11.11,18.97-5.46,28.34-6.82,1.82-3.9-1.71-18.49,2.42-20,1.24-.45,24.94-.64,26.37-.3,4.17.98.58,16.69,2.42,20.31,9.38,1.35,23.6-4.11,28.34,6.21l.15,37.73c7.24.49,42.14-.76,45.46.3,5.34,1.71,1.42,17.1,2.73,21.52h21.22c1.69-2.5,5.9-.83,6.82,1.67.52,1.41-1.42,21.07.3,24.85-2.25,7.9-6.32,4.12-6.82,4.09-7.03-.41-14.18.3-21.22,0-.66,4.52.38,15.62-.15,18.34-.45,2.28-2.65,3.2-4.7,3.49-6.08.84-33.91-.75-43.79.15v45.16c3.13,3.82,6.61,7.33,10.15,10.76.32.31,6.04,3.37,1.21,6.97-4.97,3.7-6.99-2.81-8.33-4.39-2.96-3.48-6.29-6.67-9.09-10.3l.3-48.19c-.29-.66-5.49-.96-7.43-2.27-4.72-3.22.06-10.68,7.58-3.94,2.56-2.87,5.13-.1,6.06,0,6.84.7,20.83.14,28.34,0Z"/>
        <path class="cls-3" d="M108.85,58.06h24.25c-1.62,18.01,5.32,15.84,14.7,28.03-.16.58-9.68.64-10.15.45-.43-.17-.85-2.4-2.73-2.73-3.31-.57-4.28,2.33-4.55,2.42-.93.33-18.79.38-19.7,0-.37-.16-3.18-5.06-6.52-.15-2.78,4.09.51,6.6.61,6.97.41,1.57-.31,13.56,0,17.28-15.35.66-19.2,3.46-17.88-14.24l8.49-9.4c1.54-6.52,12.56-13.36,13.34-17.88q.08-5.38.15-10.76Z"/>
        <path class="cls-3" d="M138.25,92.31c16.58.12,17.11-1.83,16.52,15.31-.97,1.53-8.9,8.77-9.09,9.4-.38,1.24.34,2.6.3,2.73-.28.97-11.07,11.13-12.73,13.34q-.38,5.83-.76,11.67h-23.64q-.08-5.08-.15-10.15c-.55-3.01-12.67-13.76-15.15-17.58.16-.56,9.04-.66,9.85-.45,1.61.41.71,1.96,2.42,2.42,3.75,1.01,4.58-2.02,4.85-2.12.95-.35,19.38-.41,20.31,0,.57.25-.03,3.95,4.55,1.82,5.2-2.43,1.72-9.42,1.67-10.15-.15-2.15-.47-15.7,1.06-16.21Z"/>
        <g>
          <path class="cls-3" d="M85.21,27.45c2.26-.46,13.89.34,18.18,0,.63.24.65,4,7.12,4.7v6.97l-11.06.45c-5.3-5.4-9.63,4.03-4.55,6.67,3.62,1.88,6.82-1.4,7.43-.45v21.52q-4.32,4.32-8.64,8.64c-2.92-.12-5.88.16-8.79,0-.33-.02-3.99-2.52-5.91.45-1.39,2.16-.52,6.18,1.97,7.12,3.76,1.43,3.15-2.38,9.24-1.06-3.98,5.47-11.61,9.55-10.46,16.21h-13.94c-.52-.37.28-4.66-.45-6.21-.44-.93-13.5-11.04-15.15-13.94-.95-1.67-1.37-5.49-2.12-7.58,9.57.09,20.09-.65,29.55-.15.15,0,.11.6.61.91,7.41-2.8,5.82,3.37,10.91,2.12,2.23-.55,7.4-6.64-6.52-9.55.41-6.3-.54-32.27,0-34.55.26-1.1,1.5-2.05,2.58-2.27Z"/>
          <path class="cls-4" d="M109.15,150.5q11.9.08,23.79.15v5.76c-.67.94-9.44-2.3-8.49,5.46.02.16.9.76.91.91.6,9.45-2.4,13.53,4.55,17.28l-.15,16.52-18.03-.45v-15.76c7-4.76,3.91-7.77,4.55-17.28,0-.15.89-.75.91-.91.9-7.88-7.81-4.81-8.49-5.76q.23-2.95.45-5.91Z"/>
          <path class="cls-4" d="M112.18,5.93q8.71.08,17.43.15v17.58l-4.24,3.94c1.68,7.64-5.35,21.52,7.58,18.79l-.15,5.91-24.09-.15c-.4-10.73.43-3.59,5.91-5.61,4.54-1.67.83-14.5,1.97-18.64q-2.27-2.12-4.55-4.24l.15-17.73Z"/>
          <path class="cls-3" d="M110.97,92.31h20.31c1.83,4.86-1.41,10.38-1.06,11.67,2.09,1.4.93,4.16,1.21,6.36l-20.76.45c-1.06-.47-.44-10,.76-11.37-1.11-1.02-.55-4.82-.45-7.12Z"/>
          <g>
            <path class="cls-1" d="M114.61,64.12c.64-.14,2.38.05,3.03.3,3.31,1.3,4.55,15.66-3.03,11.52-2.86-1.57-2.92-11.16,0-11.82Z"/>
            <path class="cls-1" d="M124,67.76c7.75-1.45,6.47,16.97-.91,11.82-2.04-1.42-2.4-11.2.91-11.82Z"/>
          </g>
          <g>
            <path class="cls-1" d="M124.61,122.31c3.38-.56,6.03,2.37,5.3,5.61-2.34,2.7,1.72,15-5.91,11.67-3.32-1.45.53-10.73-2.58-12.58-.33-1.88,1.23-4.38,3.18-4.7Z"/>
            <path class="cls-1" d="M119.61,127.46q-.3,5.3-.61,10.61c-.51.79-.95,1.64-1.97,1.82-6.39,1.12-4.18-7.44-4.39-11.06,0-.08-.87-.89-.91-1.21-.78-6.97,8.36-6.61,7.88-.15Z"/>
          </g>
          <path class="cls-5" d="M119,138.07q.3-5.3.61-10.61c4.08-.46,1.89,4.68,2.42,7.43-4.05.59-1.28.48-3.03,3.18Z"/>
        </g>
      </g>
    </g>
  </g>
</svg>