<?xml version="1.0" encoding="UTF-8"?>
<svg id="_Шар_2" data-name="Шар 2" xmlns="http://www.w3.org/2000/svg" viewBox="0 0 235.49 203.24">
  <defs>
    <style>
      .cls-1 {
        fill: #8f5994;
      }

      .cls-1, .cls-2, .cls-3, .cls-4, .cls-5, .cls-6 {
        stroke-width: 0px;
      }

      .cls-2 {
        fill: #b53798;
      }

      .cls-3 {
        fill: #ff6fe8;
      }

      .cls-4 {
        fill: #b96cb2;
      }

      .cls-5 {
        fill: #ed6dcb;
      }

      .cls-6 {
        fill: #111114;
      }
    </style>
  </defs>
  <g id="Home_Page" data-name="Home Page">
    <g>
      <path class="cls-6" d="M19.57,0h195.09c8.06,1.2,17.84,2.65,20.51,11.74l.31,173.17c-1.97,13.83-10.12,16.61-22.7,18.32H21.76c-12.74-1.67-20.21-5.15-21.76-18.95Q.16,98.33.31,12.37C2.26,2.98,11.58,1.42,19.57,0Z"/>
      <g>
        <g>
          <path class="cls-3" d="M44.94,14.09c22.14,1.14,158.99-1.49,167.22,0,5.14.93,5.25,8.12,0,9.08H44.31c-5.09-1.75-4.03-7.55.63-9.08Z"/>
          <path class="cls-5" d="M23.64,14.09c9.31-1.29,10.72,9.85,1.25,9.39-7.27-.35-7.69-8.5-1.25-9.39Z"/>
        </g>
        <g>
          <g>
            <path class="cls-4" d="M49.16,37.89q-2.04,5.25-4.07,10.49c-.11,1.5.43,1.41.63,2.35-6.84.28-22.56-3.94-20.35,7.36,1.27,6.52,14.83,2.33,19.42,3.6,2.12.59-1,5.3-1.25,6.58-6.29,1.05-16.98-1.18-17.54,2.04-.79,4.57,10.64,2.01,17.22,2.66-.54,2.85-1.39,5.6-1.88,8.46-4.28.81-19.3-2.86-15.97,5.17,1.09,2.63,12.03,2.58,14.4,2.04.65,2.47-.36,5.1-.31,7.52-5.27.6-14.55-2-13.78,3.29.6,4.07,11.07,2.56,14.09,2.35.02.37,1.12,2.09.63,7.2-3.29.54-16.54-2.15-15.34,4.23.9,4.77,13.39,1.86,16.91,2.66.02.07.9.36.94.47.68,2.2,1.19,4.53,1.88,6.73-3.96.35-14.22-.6-17.07.31-5.1,1.64-4.57,10.56.63,11.59,2.7.53,18.56-.4,23.96,0l5.17,5.64c.91.09,2.3,1.01,2.97,1.57-5.77.48-30-.89-33.04.63-3.93,1.96-4.08,9.31.94,10.33,1.89.39,33.82.12,38.67,0-.18.99,1.24,1.92,1.25,2.04.01.14-.97,2.59-1.1,2.66-1.65.99-35.44-.93-38.52,0-.28.08-.11.6-.16.63-2.41,1.39-1.47,3.74-.47,4.07,1.1.37,20.02.28,23.17.31,51.85.55,103.78-1.06,155.64-.31,1.18-.82.89-2.19.47-3.44-.29-.86-.58-1.12-1.41-1.25-4.21-.7-31.89.52-40.4,0,1.47-3.55-.24-2.19-.47-4.7,4.81.17,39.15.37,41.18,0,6.53-1.18,5.27-9.91-.31-10.96-3.32-.63-28.22.47-35.54,0,2.48-2.35,5.63-4.64,7.83-7.2,6.23-.43,25.27.58,28.34,0,5.62-1.06,6.22-9.86.63-11.59-3.35-1.03-16.76.13-21.45-.31,1.01-2.17,1.09-5.92,3.13-7.2,4.54-.36,15.67.49,18.32,0,4.33-.79,2.95-6.22,0-6.89-.81-.18-15.79-.21-16.6,0-.12.03-.24.57-.47.94.02-.09-.82-.33.63-1.72v-5.95c.16-.31.66-.09.94-.16,3.14-.78,16.43,1.68,17.54-2.04.45-1.51-.38-3.81-2.04-4.23-.76-.19-14.9-.18-15.66,0-.23.06-.16.42-.16.63,0-.06-.62-.98-.63-1.1-.01-.4.61-3.83.31-6.73,1.87.22,15.6.11,16.75-.31,2.89-1.07,2.87-6.19-.31-6.89-2.07-.46-13.44.34-17.54,0l.16,7.2c-.43-.16-.46.16-.94-.78.48-5.51-1.52-9.56-.94-15.19,2.38.15,18.63.59,19.57.31,2.02-.6,1.67-4.12-.63-4.7-.96-.24-18.92-.57-19.73,0-.21.15-.4,3.87.16,4.38l-.63.16q-.16-5.56-.31-11.12c6.28-1.45,25.51,4.56,23.17-7.36-.1-.5-1.46-2.59-2.04-2.97-2.32-1.54-19.06-1.23-22.7-.31.52-7.96-.94-6.36-.94-6.73,0-.15,2.27-.13,0-1.88,2.32-.37-.32-3.59,1.25-4.54,15.06,1.83,31.65-5.84,34.45,10.49-1.02,19.61,1.33,118.92,0,127.77-.62,4.08-4.35,8.08-8.61,8.61H24.27c-4.16-.56-7.98-4.15-8.61-8.3-1.39-9.13,1.03-109.71.31-129.33,2.67-14.36,22.09-7.99,33.19-9.24Z"/>
            <path class="cls-2" d="M33.98,167.85h171.92c5.29,1.83,5.96,7.29.31,9.08H28.65c-4.6-.89-7.07-9.91,5.32-9.08Z"/>
          </g>
          <path class="cls-2" d="M207.31,159.08c.42,1.26.71,2.63-.47,3.44-51.86-.75-103.79.86-155.64.31-3.15-.03-22.07.05-23.17-.31-1-.33-1.94-2.68.47-4.07,30-.47,60.04-.13,90.03.63,14.15-.09,79.74-1.92,86.74-.94.11.02,1.38.63,2.04.94Z"/>
          <path class="cls-2" d="M165.03,153.13c-1.72-.06-3.45.04-5.17,0-1.69-1.2,7.16-7.81,10.49-10.96,7.32.47,32.22-.63,35.54,0,5.59,1.06,6.84,9.78.31,10.96-2.03.37-36.37.17-41.18,0Z"/>
          <path class="cls-2" d="M60.44,142.17c4.15,3.4,8.32,6.79,12.21,10.49.01.81-3.13.41-5.64.47-4.85.12-36.78.39-38.67,0-5.02-1.03-4.86-8.37-.94-10.33,3.04-1.52,27.27-.15,33.04-.63Z"/>
          <path class="cls-2" d="M178.18,134.97c1.97-2.29,6.2-9.08,7.52-11.9,4.69.44,18.1-.72,21.45.31,5.59,1.72,5,10.53-.63,11.59-3.07.58-22.11-.43-28.34,0Z"/>
          <path class="cls-2" d="M44.78,123.07l7.52,11.9c-5.4-.4-21.26.53-23.96,0-5.2-1.03-5.73-9.95-.63-11.59,2.84-.91,13.11.04,17.07-.31Z"/>
          <path class="cls-2" d="M186.64,61.69c-4.56-3.8-1.6-10.06-1.57-10.65,3.64-.91,20.39-1.23,22.7.31.58.38,1.94,2.48,2.04,2.97,2.33,11.92-16.89,5.91-23.17,7.36Z"/>
          <path class="cls-2" d="M191.02,88.62c-.33-.04-.77.07-.94,0l-.16-7.2c4.1.34,15.46-.46,17.54,0,3.19.7,3.2,5.82.31,6.89-1.15.43-14.88.54-16.75.31Z"/>
          <path class="cls-2" d="M188.83,115.87c-.53-1.27.81-3.79,1.25-5.95.23-.37.35-.91.47-.94.8-.21,15.79-.18,16.6,0,2.95.67,4.33,6.09,0,6.89-2.65.49-13.78-.36-18.32,0Z"/>
          <path class="cls-2" d="M41.34,81.42c-.34,1.97.41,6.75-1.57,7.2-2.37.55-13.31.59-14.4-2.04-3.33-8.03,11.69-4.36,15.97-5.17Z"/>
          <path class="cls-2" d="M191.65,102.09c-.62-1.71-.22-3.81-.31-5.64,0-.21-.08-.57.16-.63.76-.18,14.9-.19,15.66,0,1.66.42,2.49,2.72,2.04,4.23-1.11,3.71-14.4,1.25-17.54,2.04Z"/>
          <path class="cls-2" d="M40.4,108.98c1.33,2.04.95,4.74,1.57,6.89-3.52-.8-16.01,2.11-16.91-2.66-1.2-6.37,12.06-3.69,15.34-4.23Z"/>
          <path class="cls-2" d="M188.2,72.65c-.21-.01-.42,0-.63,0-.55-.51-.37-4.24-.16-4.38.8-.57,18.77-.24,19.73,0,2.3.58,2.65,4.1.63,4.7-.94.28-17.19-.16-19.57-.31Z"/>
          <path class="cls-2" d="M39.46,96.14c.03,1.79.2,3.83.31,5.64-3.02.21-13.49,1.72-14.09-2.35-.78-5.29,8.51-2.69,13.78-3.29Z"/>
          <g>
            <path class="cls-2" d="M45.72,50.73c.01.07.79.39.94,1.1.39,1.8-.28,8.23-1.88,9.86-4.59-1.27-18.14,2.92-19.42-3.6-2.21-11.3,13.51-7.08,20.35-7.36Z"/>
            <path class="cls-2" d="M43.53,68.27c-.26,1.29.04,2.86-.31,4.7-6.58-.66-18.01,1.91-17.22-2.66.55-3.21,11.24-.98,17.54-2.04Z"/>
          </g>
          <g>
            <path class="cls-1" d="M185.39,37.89c-1.57.95,1.06,4.17-1.25,4.54,2.27,1.75,0,1.73,0,1.88,0,.37,1.46-1.23.94,6.73-.04.59-3,6.85,1.57,10.65q.16,5.56.31,11.12l.63-.16c.21,0,.42-.01.63,0-.58,5.63,1.42,9.68.94,15.19.48.94.51.62.94.78.17.07.61-.04.94,0,.3,2.9-.33,6.33-.31,6.73,0,.11.62,1.03.63,1.1.09,1.83-.31,3.92.31,5.64-.27.07-.78-.15-.94.16v5.95c-1.45,1.39-.61,1.63-.63,1.72-.44,2.16-1.79,4.68-1.25,5.95-2.04,1.28-2.12,5.03-3.13,7.2-1.32,2.82-5.54,9.61-7.52,11.9-2.2,2.57-5.35,4.85-7.83,7.2-3.33,3.15-12.19,9.76-10.49,10.96,1.72.04,3.45-.06,5.17,0,.23,2.5,1.94,1.15.47,4.7,8.51.52,36.19-.7,40.4,0,.82.14,1.12.39,1.41,1.25-.66-.3-1.92-.92-2.04-.94-7-.98-72.59.85-86.74.94-29.99-.76-60.03-1.1-90.03-.63.04-.02-.12-.54.16-.63,3.08-.93,36.87.99,38.52,0,.12-.07,1.11-2.52,1.1-2.66,0-.12-1.43-1.04-1.25-2.04,2.5-.06,5.65.34,5.64-.47-3.9-3.7-8.07-7.09-12.21-10.49-.68-.56-2.06-1.47-2.97-1.57l-5.17-5.64-7.52-11.9c-.69-2.21-1.2-4.53-1.88-6.73-.03-.11-.92-.4-.94-.47-.61-2.15-.23-4.85-1.57-6.89.49-5.12-.6-6.83-.63-7.2-.12-1.8-.28-3.85-.31-5.64-.05-2.42.96-5.05.31-7.52,1.97-.46,1.23-5.23,1.57-7.2.49-2.85,1.34-5.61,1.88-8.46.35-1.84.06-3.41.31-4.7.25-1.28,3.38-5.99,1.25-6.58,1.6-1.63,2.26-8.06,1.88-9.86-.15-.7-.92-1.03-.94-1.1-.19-.94-.74-.85-.63-2.35q2.04-5.25,4.07-10.49c5.24-.59,11.47-8.35,20.2-9.39,11.66-1.4,76.09,1.06,94.57,0,9.38,1,15.33,8.65,21.45,9.39Z"/>
            <path class="cls-2" d="M109.76,31.94c8.25-.04,54.35.08,57.93.94,7.63,1.83,12.34,8.7,13.62,16.13-1.13,18.22,3.96,55.19-1.57,70.46-5.51,15.23-25.53,29.9-40.87,33.66-8.95,2.2-23.34,2.37-32.57,1.57-21.92-1.92-50.79-15.38-56.52-38.67-3.35-13.62.79-48.97-.31-65.45,1.42-9.28,8.28-16.54,17.69-18.01,5.03-.78,34.59-.58,42.59-.63Z"/>
            <path class="cls-1" d="M85.33,130.58c2.95-.57,57.17-.57,60.12,0,4.39.84,4.13,6.67,0,7.52-3.41.7-50.94-.53-61.06,0-4.09-1.51-3.02-6.75.94-7.52Z"/>
            <g>
              <path class="cls-1" d="M74.37,38.83c17.19,1.46,74.8-1,85.18.31,4.79.61,11.21,4.93,12.37,9.86.71,3.03,1.15,49.69.63,55.11-.86,8.81-3.24,18.54-13.62,19.89-4.29.55-82.13.48-86.43,0-8.89-.99-13.41-6.88-14.25-15.5-.36-3.65-.09-54.77.31-57.62,1.08-7.66,9.14-10.89,15.81-12.06Z"/>
              <path class="cls-2" d="M69.99,46.35c13.64.67,85.68-.88,90.5,0,2.06.38,4.84,2.89,4.54,5.17l-99.11.16c-.13-2.85,1.62-4.39,4.07-5.32Z"/>
              <g>
                <path class="cls-2" d="M65.61,58.87h99.9c-.25,10.14,1.56,42.09.78,48.07-.57,4.4-3.43,8.49-7.99,9.24-14.16-.77-79.49,1.01-85.8,0-3.84-.61-7.11-4.18-7.67-7.99-.84-5.68.59-39.6.78-49.32Z"/>
                <g>
                  <path class="cls-1" d="M78.13,99.27c4.25-.8,62.4.61,74.22,0,4.39,1.26,4.55,6.51.31,7.83-10.9-.6-71.48.79-75.16,0-4.11-.88-3.75-7,.63-7.83Z"/>
                  <path class="cls-1" d="M77.5,83.61c3.88-.77,64.33.58,76.1,0,3.71,1.3,2.67,6.5-.94,7.2-3.98.77-63.13-.59-74.84,0-3.89-.79-4.48-6.38-.31-7.2Z"/>
                  <path class="cls-1" d="M105.69,67.33c1.37-.3,15.03-.74,16.13,1.72,3.61,8.14-14.26,6.57-16.44,5.79-3.39-1.21-3.38-6.7.31-7.52Z"/>
                  <path class="cls-1" d="M141.07,67.33c1.09-.24,12.94-.05,13.78.31,2.76,1.21,1.71,6.54-.94,7.2-.64.16-12.51.16-13.15,0-3.02-.75-3.46-6.69.31-7.52Z"/>
                  <path class="cls-1" d="M76.57,67.33c2.04-.41,10.07-.41,11.12,1.72,3.46,7.05-12.6,7.74-13.78,2.82-.51-2.15.43-4.1,2.66-4.54Z"/>
                </g>
              </g>
            </g>
          </g>
        </g>
      </g>
    </g>
  </g>
</svg>