<?xml version="1.0" encoding="UTF-8"?>
<svg id="_Шар_2" data-name="Шар 2" xmlns="http://www.w3.org/2000/svg" xmlns:xlink="http://www.w3.org/1999/xlink" viewBox="0 0 220.06 221.04">
  <defs>
    <style>
      .cls-1 {
        fill: #088456;
      }

      .cls-1, .cls-2, .cls-3, .cls-4, .cls-5, .cls-6, .cls-7, .cls-8, .cls-9, .cls-10, .cls-11, .cls-12, .cls-13, .cls-14, .cls-15, .cls-16, .cls-17, .cls-18, .cls-19, .cls-20, .cls-21, .cls-22, .cls-23, .cls-24, .cls-25, .cls-26, .cls-27, .cls-28 {
        stroke-width: 0px;
      }

      .cls-2 {
        fill: #cbdcd4;
      }

      .cls-3 {
        fill: #2f3b47;
      }

      .cls-4 {
        fill: #572b4f;
      }

      .cls-5 {
        fill: #105857;
      }

      .cls-6 {
        fill: #0a9091;
      }

      .cls-7 {
        fill: #02965f;
      }

      .cls-8 {
        fill: #e25672;
      }

      .cls-9 {
        fill: #04a67c;
      }

      .cls-10 {
        fill: #b04879;
      }

      .cls-11 {
        fill: #079678;
      }

      .cls-12 {
        fill: #066d63;
      }

      .cls-13 {
        fill: #c3cbc7;
      }

      .cls-14 {
        fill: #1c444c;
      }

      .cls-15 {
        fill: #078770;
      }

      .cls-16 {
        fill: #137a7a;
      }

      .cls-17 {
        fill: url(#_Градієнт_без_назви_21);
      }

      .cls-18 {
        fill: #049a8c;
      }

      .cls-19 {
        fill: #0c887e;
      }

      .cls-20 {
        fill: #c64b77;
      }

      .cls-21 {
        fill: #fbfbfc;
      }

      .cls-22 {
        fill: #903363;
      }

      .cls-23 {
        fill: #1c4a4b;
      }

      .cls-24 {
        fill: #2aabb0;
      }

      .cls-25 {
        fill: #9fa49b;
      }

      .cls-26 {
        fill: #21775d;
      }

      .cls-27 {
        fill: #43454f;
      }

      .cls-28 {
        fill: #373242;
      }
    </style>
    <linearGradient id="_Градієнт_без_назви_21" data-name="Градієнт без назви 21" x1="132.37" y1="34.94" x2="81.71" y2="106.95" gradientUnits="userSpaceOnUse">
      <stop offset="0" stop-color="#483952"/>
      <stop offset="1" stop-color="#364252"/>
    </linearGradient>
  </defs>
  <g id="Home_Page" data-name="Home Page">
    <g>
      <path class="cls-25" d="M31.14,180.98c.7.56.87,1.72.77,2.55-.06.45-.44,1.67-1.15,1.53-1.68-.32,1.17-4.28-1.28-3.57-1.74.5-.64,7.26,2.55,3.57.15,2.34-2.83,1.77-4.47,1.4,1.65-2.95-1.42-6.76,2.68-6,.05,0,.8.43.89.51Z"/>
      <path class="cls-13" d="M190.52,34.49c1.45-.37,2.06,1.21,1.02,1.79-1.79,1-2.71-1.35-1.02-1.79Z"/>
      <g>
        <path class="cls-2" d="M182.73,31.94c2.82,2.11,2.94,4.05,3.06,7.4-7.69-8.41-21.4-18.01-31.77-22.71C116.88-.2,70.51,6.19,40.33,33.98c-3.32.61.85-2.91.77-3.19l-.38-.38-10.34-.38c43.37-40.05,116.63-40.15,159.63.38q-4.59-.26-9.19-.51c-.26.89,1.37,1.66,1.91,2.04Z"/>
        <path class="cls-2" d="M31.39,43.68C-1.34,82.82-.91,139.73,31.9,178.68l-1.15-.77c-9.09-.84-12.13-1.26-16.97-9.06C6.51,157.14.21,125.79,0,111.95c-.18-12.45,6.23-44.11,11.48-55.38.66-1.41,3.27-6.11,4.08-7.15,5.67-7.22,12.75-3.9,14.16-4.47.66-.26.84-1.94,1.66-1.28Z"/>
        <path class="cls-2" d="M187.58,179.45c34.58-38.38,33.81-95.45,2.04-135.26,11.88-.19,15.5,3.75,19.91,14.16,3.98,9.39,9.98,37.98,10.46,48.23.79,16.56-5.11,52.46-15.57,65.59-5.81,7.29-10.8,4.21-16.84,7.27Z"/>
        <path class="cls-25" d="M186.82,40.62c-.62-.71-.97-1.22-1.02-1.28-.12-3.35-.25-5.29-3.06-7.4.67.47,3.84,2.23,4.08,2.93.22.63-.16,4.27,0,5.74Z"/>
        <path class="cls-25" d="M37.65,33.47c.13.41-1.51,2.77-1.66,2.93-2.05,2.21-1.4.15,1.66-2.93Z"/>
        <g>
          <path class="cls-2" d="M186.56,180.73c.26.91.56,1.14,1.53,1.02-1.61,1.51-2.31,5.56-2.3,7.66,0,.8-.42.93.13,1.28l3.57-.51.38.38c-41.22,40.61-117.61,40.61-158.99.26-.22-.64,4.53.32,7.53.13,5-.31,4.32-.51-.64-4.59-1.52-1.25-2.29-2.74-4.08-2.81-.59-.02-1.19.01-1.79,0,.11-.83-.06-1.99-.77-2.55,1.22-.41,2.13-.42,1.28-1.79,4.34,3.37,9.48,10.89,23.61,19.4,41.81,25.19,97.15,17.87,130.54-17.86Z"/>
          <path class="cls-13" d="M184.9,185.06v5.61c-8.88-.85-5.53,1,0-5.61Z"/>
        </g>
        <g>
          <path class="cls-25" d="M185.8,189.4c-.01-2.09.68-6.15,2.3-7.66,1.05-.98,2.68-1.47,3.96-.51,3.29-1.84,2.19-.79-.13.64,1.13.52-1.55,1.85.51,5.1l-.38.38c-.92-1.34-1.39,1.08-2.81-.26q-1.72,1.15-3.45,2.3Z"/>
          <path class="cls-13" d="M190.26,182.51c.73.13,1.1,1.75.89,2.42-.61,2-2.41-.94-2.93,2.17-1.19-1.46.27-4.92,2.04-4.59Z"/>
        </g>
        <g>
          <path class="cls-27" d="M185.8,39.34c.06.06.4.57,1.02,1.28.98,1.12,1.87,2.4,2.81,3.57,31.77,39.81,32.54,96.88-2.04,135.26-.35.39-.67.9-1.02,1.28-33.39,35.74-88.72,43.05-130.54,17.86-14.13-8.51-19.26-16.02-23.61-19.4-.03-.02-.12-.47-.51-.51C-.91,139.73-1.34,82.82,31.39,43.68c2.48-2.97,6.14-7.13,8.93-9.7C70.51,6.19,116.88-.2,154.02,16.63c10.37,4.7,24.09,14.31,31.77,22.71Z"/>
          <path class="cls-4" d="M107.83,16.63c25.64-.66,51.48,9.06,69.67,27.31,11.76,11.79,20.84,29.56,24.12,45.81,2.66,13.17,2.32,27.11.51,40.32-7.45,35.14-32.05,61-66.74,70.31-29.42,7.89-61.91,1.22-85.75-17.86-11.92-9.54-22.18-24.52-27.18-38.92-.91-2.61-1.36-5.49-2.04-8.17-.05-.21-.46-.04-.51-.26-2.41-9.72-3.33-25.58-2.55-35.47.5-6.35,4.7-21.58,7.15-27.82,12.98-33.16,48.37-54.35,83.33-55.25Z"/>
          <g>
            <path class="cls-22" d="M148.79,35.26c-10.28-.39-69.92-.48-78.86,0,0-.17-.07-.44.13-.51,25.72-9.08,42.61-12.92,69.42-3.57,2.61.91,7.18,2.73,9.32,4.08Z"/>
            <path class="cls-22" d="M37.01,78.64h-4.85c2.66-14.76,16.56-30.1,28.58-38.54.93,1.88,2.58,2.86,4.59,3.19v16.33c-8.1.84-18.59-2.19-24.5,5.1-2.83,3.49-4.04,9.52-3.83,13.91Z"/>
            <path class="cls-22" d="M187.84,78.13c-.91-.63-3.23-.73-4.34-.26-.07-4.63-1.33-9.26-4.34-12.89-6.49-7.83-14.86-4.41-23.73-5.36v-16.08c.29-.62,3.71-.28,3.83-3.45,13.05,9.36,25.02,21.95,28.58,38.03Z"/>
            <path class="cls-20" d="M182.73,154.18c-.75,1.29-1.49,2.57-2.3,3.83-4.86.46-34.89-.6-36.62,0-.2.07-.13.33-.13.51-1.23-.32-2.15-.17-3.32-.26q.06-2.17.13-4.34,21.12.13,42.24.26Z"/>
            <path class="cls-20" d="M79.12,158.27c-.77.08-1.15.01-2.04.26,0-.16-.6-.5-.64-.51-3.43-.59-29.3.44-36.62,0-.78-1.18-1.58-2.35-2.3-3.57q20.86-.13,41.73-.26-.06,2.04-.13,4.08Z"/>
            <path class="cls-22" d="M126.33,191.19c1.02.44,4.67-.07,2.17,1.53-4.56,2.93-29.89,1.39-36.75,1.79-.54-.39.37-2.73.64-3.32,11.29.16,22.65.13,33.94,0Z"/>
            <path class="cls-8" d="M193.96,107.23c.16.03,2.82,1.42,2.93,1.53,2.21,2.16-.15,4.92-2.68,5.1-6.73.49-5.24-7.56-.26-6.64Z"/>
            <path class="cls-8" d="M26.55,113.61c-4.97-.31-6.33-4.37-.26-5.87.71-.18,1.5-.76,2.42-.51,1.45.38,4.21,6.78-2.17,6.38Z"/>
            <path class="cls-8" d="M187.84,78.13c1.27.88,1.34,3.91.51,5.1-1.06,1.54-3.92.73-5.36,0,.35-1.73.54-3.59.51-5.36,1.1-.47,3.43-.38,4.34.26Z"/>
            <path class="cls-8" d="M37.01,78.64c.08,1.59.58,3.31,1.02,4.85-2.81.69-5.31.45-6.12.51-.52-1.83-.07-3.55.26-5.36h4.85Z"/>
            <g>
              <path class="cls-8" d="M79.63,118.71c-1.9.65-3.18,3.16-2.81,5.1-7.1-.41-35.94.54-38.66,0-5.48-1.09.77-9.75,4.59-4.59.65-1.37,10.24-1.3,10.72-1.02.21.13,0,1.47.77,1.28.57-.14.16-1.25.77-1.53.78-.36,14.96-.06,17.1,0,2.81.07,8.53.23,7.53.77Z"/>
              <path class="cls-8" d="M143.18,123.81c.63-2.15,0-4.36-2.3-5.1,0-.17-.06-.47.13-.51.6-.14,11.72-.32,12.25,0,.21.13.08,1.63.77,1.53.22-.03.69-1.5.77-1.53,1-.45,20.89-.3,21.95,0,.31.09.99,1.33,1.53,1.28,5.84-6.77,8.86,6.02,1.79,5.1-.14-.02-.64-.76-.77-.77-9.24-.66-25.71.49-36.11,0Z"/>
            </g>
            <path class="cls-8" d="M164.61,103.65c.36-.19,2.58-2.28,5.1-3.32,7.73-3.17,7.59.51,8.04.51,8.18-8.03,8.54,10.68-.26,3.32-.59,1.79-11.91,1.54-12.51,1.28-.59-.26-.34-1.27-.38-1.79Z"/>
            <path class="cls-20" d="M84.48,148.82c-2.09.19-2.42-.25-2.55-.26v-3.32c.09,0,.65-.3,1.79-.38-.11-.92.14-4.64,0-4.85-.27-.38-2.8.46-2.04-1.28.49-1.11,2.79,1.62,2.04-6.12-8.08-1.6-11.16,2.33-10.21-4.34,3.76-.65,7.95.95,11.23-1.4.12,7.33-.04,14.62-.26,21.95Z"/>
            <path class="cls-10" d="M136.54,148.57c-.01-1.19,0-2.38,0-3.57,1.79.29,16.6-.57,17.1.13.11.15.16,3.46-.38,3.7q-8.36-.13-16.72-.26Z"/>
            <path class="cls-8" d="M51.56,100.85c1.35,1.18,1.32,2.99-.13,4.08-4.58,3.47-12.24-4.85-2.68-6.38.88.77,1.87,1.6,2.81,2.3Z"/>
            <path class="cls-8" d="M40.58,89.11c.71,1.17,1.7,2.49,2.55,3.57-4.04,9.8-13.09-3.4-2.55-3.57Z"/>
            <path class="cls-8" d="M177.12,93.7c.63-.69,3.32-3.91,3.57-4.34,7.51-.47,2.84,12.11-3.57,4.34Z"/>
            <path class="cls-8" d="M79.12,113.1c-1.53,5.6-9.37,1.09-4.59-2.55.92.19,2.01-.27,2.93.26.93.68,1.57,2.19,1.66,2.3Z"/>
            <path class="cls-8" d="M146.24,110.29c3.89,3.58-2.69,7.57-4.85,3.06.1-.12.41-1.36,1.91-2.55,1.23-.67,2.37-.39,2.93-.51Z"/>
            <path class="cls-10" d="M136.54,140.66c.02-1.28-.03-2.55,0-3.83,4.08-1.46,4.1,5.09,0,3.83Z"/>
            <path class="cls-10" d="M81.93,145.25v3.32c-3.47-.03-5.05,1.77-4.21-3.57,1.11-.27,4,.28,4.21.26Z"/>
            <g>
              <path class="cls-22" d="M38.03,83.49c.61,2.1,1.43,3.76,2.55,5.61-10.54.18-1.48,13.37,2.55,3.57,1.43,1.82,3.86,4.34,5.61,5.87-9.56,1.53-1.9,9.85,2.68,6.38,1.44-1.09,1.48-2.9.13-4.08,7.65,5.71,13.82,7.85,22.97,9.7-4.78,3.64,3.07,8.15,4.59,2.55,1.4,1.66,2.6,3.45,3.83,5.23-.23.3-2.04-.06-3.32.38,1-.54-4.72-.69-7.53-.77-2.14-.06-16.32-.36-17.1,0-.6.28-.2,1.39-.77,1.53-.77.2-.55-1.15-.77-1.28-.48-.28-10.07-.35-10.72,1.02-3.83-5.15-10.07,3.5-4.59,4.59,2.72.54,31.56-.41,38.66,0,.58,3.02,5.44,3.53,7.91,3.06-3.28,2.36-7.47.75-11.23,1.4-.95,6.67,2.13,2.74,10.21,4.34.75,7.74-1.56,5.02-2.04,6.12-.76,1.74,1.77.9,2.04,1.28.14.2-.11,3.93,0,4.85-1.14.08-1.7.37-1.79.38-.21.02-3.1-.53-4.21-.26-.83,5.34.74,3.55,4.21,3.57.13,0,.47.45,2.55.26-.09,3.1.07,6.21,0,9.32-.22.31-4.53.05-5.36.13q.06-2.04.13-4.08-20.86.13-41.73.26c-7.54-12.83-11.65-25.83-10.97-40.83,6.38.4,3.62-6,2.17-6.38-.93-.25-1.71.33-2.42.51-1.08-3.89,1.82-22.4,4.98-23.99.56,0,.14.3.64.26.81-.06,3.32.18,6.12-.51Z"/>
              <g>
                <path class="cls-8" d="M57.81,108.25c4.52-.12,3.7,6.09,1.28,6.64-1.43.32-2.18-.51-2.3-.51-5.02-.07-10.04.06-15.06,0-7.05,4.43-7.57-8.98.77-5.1,4.63-.96,11.33.74,15.31-1.02Z"/>
                <path class="cls-10" d="M55,136.32c.98-.26,17.24.72,20.16.26.16.11.24,3.79.13,3.96-.6.85-18.34-.38-20.8.13-.04-1.76-1.12-3.91.51-4.34Z"/>
                <path class="cls-10" d="M60.62,145c.6-.43,14.2-.43,14.8,0,.15.11.23,3.22.13,3.45-.37.83-12.83.16-14.67.38-.65-.29-.41-3.72-.26-3.83Z"/>
                <path class="cls-20" d="M60.87,128.15h11.23c.17.12.25,4.04.13,4.21-.33.46-9.96-.09-11.36.13v-4.34Z"/>
                <path class="cls-8" d="M39.18,98.55c4.58-.49,5.46,6.65,1.02,7.15-5.23.58-5.04-6.71-1.02-7.15Z"/>
                <path class="cls-20" d="M47.34,127.9c.2-.02,3.04.27,4.08,0,1.17,1.26-.01,2.78.64,4.21l-6.76.38c-.8-3.86-1.13-4.25,2.04-4.59Z"/>
                <path class="cls-20" d="M54.49,127.9c.35-.08,3.42.1,4.85,0,1.68,6.42-.94,4.26-5.87,4.59-.78-3.24-.87-4.15,1.02-4.59Z"/>
                <path class="cls-20" d="M45.56,145c.26-.18,5.43.14,6.38,0,.67,5.67.22,3.8-6.38,4.08-.21-.15-.21-3.93,0-4.08Z"/>
                <path class="cls-20" d="M45.56,136.57h5.87c.17.12.25,4.04.13,4.21-.24.34-4.93,0-5.74.13q-.13-2.17-.26-4.34Z"/>
                <path class="cls-20" d="M37.39,128.15h4.08c1.14,4.81.58,4.49-3.83,4.34l-.26-4.34Z"/>
                <path class="cls-20" d="M37.65,136.57l4.21.13c1.46,6.47-6.11,6.21-4.21-.13Z"/>
                <path class="cls-20" d="M37.39,145c.17-.12,4.09-.04,4.21.13.1,4.52.67,4.94-4.34,3.83.11-.65-.2-3.72.13-3.96Z"/>
                <path class="cls-10" d="M53.47,145c4.81-1.38,3.61,3.88,3.32,4.08-.3.21-5.05,1.46-3.32-4.08Z"/>
                <path class="cls-22" d="M78.23,136.57c.12-.09,2.69-.17,2.93.38.1.23.02,3.59-.13,3.7-.12.09-2.69.17-2.93-.38-.1-.23-.02-3.59.13-3.7Z"/>
              </g>
            </g>
            <g>
              <path class="cls-22" d="M188.35,83.24c4.41,5.66,6.26,16.93,5.61,23.99-4.99-.93-6.48,7.12.26,6.64.18,16.61-3.34,26.37-11.48,40.32q-21.12-.13-42.24-.26-.06,2.17-.13,4.34c-.61-.04-3.63.15-3.83-.13-.02-3.19.03-6.38,0-9.57q8.36.13,16.72.26c.54-.24.49-3.55.38-3.7-.5-.7-15.31.16-17.1-.13,0-1.44-.02-2.89,0-4.34,4.1,1.26,4.08-5.29,0-3.83.08-3.28.27-6.55.26-9.83.25-.35,5.26.67,6.38-3.19,10.4.49,26.88-.66,36.11,0,.12,0,.63.75.77.77,7.07.92,4.05-11.88-1.79-5.1-.54.06-1.22-1.19-1.53-1.28-1.06-.3-20.95-.45-21.95,0-.08.04-.55,1.5-.77,1.53-.69.1-.56-1.41-.77-1.53-.53-.32-11.65-.14-12.25,0-.19.05-.13.34-.13.51-1.33-.43-3.09-.1-3.32-.38,1.23-1.69,2.46-3.39,3.83-4.98,2.15,4.51,8.74.52,4.85-3.06,9.11-2.01,10.04-2.23,18.38-6.64.04.52-.21,1.52.38,1.79.59.26,11.91.51,12.51-1.28,8.79,7.37,8.44-11.35.26-3.32-.45,0-.31-3.68-8.04-.51,2.29-2.39,5.15-4.2,7.4-6.64,6.41,7.77,11.08-4.81,3.57-4.34.94-1.59,1.93-4.3,2.3-6.12,1.44.73,4.29,1.54,5.36,0Z"/>
              <g>
                <path class="cls-8" d="M157.08,108.76c.98-.18,18.06.12,19.91.26.09,0,.54.59.77.77,7-4.25,9.56,6.27,2.04,5.61-1.25-2.44-6.84,1.16-7.91-2.3-2.13,2.99-4.81,1.27-5.87,1.28-1.73,0-5.33,1.18-6.12-.77-4.74,4.6-9.12-3.72-2.81-4.85Z"/>
                <path class="cls-10" d="M140.5,136.57c3.74.69,29.62-.89,30.88,0,.15.11.23,3.47.13,3.7-.63,1.42-27.55-.29-31.01.38v-4.08Z"/>
                <path class="cls-10" d="M156.57,128.15h16.59l.38,3.96-16.97.38v-4.34Z"/>
                <path class="cls-10" d="M137.18,128.15h16.59q.06,1.98.13,3.96l-16.72.38v-4.34Z"/>
                <path class="cls-10" d="M162.7,144.74c1.33-.04,8.81-.01,9.19.26.15.11.23,3.22.13,3.45-.37.84-13.32.16-15.18.38-1.3-4.42-.61-3.9,5.87-4.08Z"/>
                <path class="cls-22" d="M179.42,145v3.83c-1.39.08-2.81-.06-4.21,0-1.22-5.03.12-4.27,4.21-3.83Z"/>
                <path class="cls-20" d="M179.29,128.15c4.75-2.11,5.09,6.44-.38,3.96.15-.75-.36-3.62.38-3.96Z"/>
                <g>
                  <path class="cls-10" d="M179.16,136.83v3.83c-1.4.06-2.81-.04-4.21,0-.63-5.36-.02-4.09,4.21-3.83Z"/>
                  <path class="cls-20" d="M179.16,140.66v-3.83c2.45.15,3.71-1.98,3.32,3.7-.18.26-2.78.11-3.32.13Z"/>
                </g>
                <path class="cls-20" d="M179.42,148.82v-3.83c.67.07,3.02-.29,3.32.38.06.14.06,2.92,0,3.06-.29.65-2.67.35-3.32.38Z"/>
              </g>
            </g>
            <g>
              <path class="cls-22" d="M180.44,158.01c-8.85,13.81-18.13,21.99-33.18,28.84.46-1.52.82-21.94.51-23.86-.34-2.14-1.96-3.92-4.08-4.47,0-.18-.07-.44.13-.51,1.73-.6,31.76.46,36.62,0Z"/>
              <path class="cls-8" d="M160.15,161.07c5.12-1.01,5.23,6.57,1.79,7.4-5.23,1.26-5.4-6.68-1.79-7.4Z"/>
            </g>
            <g>
              <path class="cls-22" d="M77.08,158.52c-1.7.46-3.76,2.43-4.08,4.21-.48,2.6.36,18.38,0,23.61-14.4-6.34-24.56-15.25-33.18-28.33,7.32.44,33.2-.59,36.62,0,.04,0,.64.35.64.51Z"/>
              <path class="cls-8" d="M58.83,160.82c4.6-.41,4.75,7.29,1.02,7.91-5.03.84-5.17-7.54-1.02-7.91Z"/>
            </g>
            <g>
              <path class="cls-21" d="M69.93,35.26c8.94-.48,68.58-.39,78.86,0,3.34.13,10.66-.41,10.46,4.85-.12,3.17-3.54,2.83-3.83,3.45v16.08c8.87.94,17.24-2.48,23.73,5.36,3.01,3.63,4.27,8.26,4.34,12.89.03,1.77-.16,3.62-.51,5.36-.36,1.83-1.36,4.54-2.3,6.12-.25.43-2.94,3.65-3.57,4.34-2.25,2.44-5.11,4.24-7.4,6.64-2.53,1.03-4.75,3.13-5.1,3.32-8.34,4.4-9.26,4.63-18.38,6.64-.56.12-1.71-.16-2.93.51-1.51,1.19-1.81,2.43-1.91,2.55-1.36,1.59-2.6,3.28-3.83,4.98.22.29,1.99-.05,3.32.38,2.29.74,2.92,2.95,2.3,5.1-1.12,3.86-6.13,2.84-6.38,3.19.02,3.28-.18,6.55-.26,9.83-.03,1.27.02,2.55,0,3.83-.02,1.44,0,2.89,0,4.34,0,1.19-.01,2.38,0,3.57.03,3.19-.02,6.38,0,9.57.2.28,3.22.09,3.83.13,1.17.08,2.08-.06,3.32.26,2.13.54,3.74,2.33,4.08,4.47.31,1.92-.05,22.34-.51,23.86-1.87,6.19-15.77,4.28-20.93,4.34-11.29.13-22.65.16-33.94,0-9.06-.13-16.31,1.74-19.4-4.85.36-5.23-.48-21,0-23.61.33-1.78,2.38-3.75,4.08-4.21.89-.24,1.28-.18,2.04-.26.83-.08,5.14.18,5.36-.13.07-3.1-.09-6.22,0-9.32.21-7.32.37-14.62.26-21.95-2.47.47-7.33-.04-7.91-3.06-.37-1.95.9-4.45,2.81-5.1,1.28-.44,3.09-.09,3.32-.38-1.22-1.78-2.43-3.57-3.83-5.23-.09-.11-.73-1.62-1.66-2.3-.92-.53-2.01-.07-2.93-.26-9.15-1.85-15.32-3.99-22.97-9.7-.94-.7-1.92-1.53-2.81-2.3-1.76-1.53-4.19-4.05-5.61-5.87-.85-1.09-1.84-2.4-2.55-3.57-1.12-1.85-1.95-3.52-2.55-5.61-.44-1.53-.94-3.26-1.02-4.85-.21-4.39,1-10.42,3.83-13.91,5.91-7.3,16.4-4.27,24.5-5.1v-16.33c-2.02-.33-3.66-1.31-4.59-3.19.2-4.81,5.56-4.65,9.19-4.85Z"/>
              <g>
                <path class="cls-8" d="M45.18,82.98c-1.03-2.33-1.32-3.28-1.28-5.87,7.48-.59,6.64,1.22,7.02,1.28.38.05,1.15-2.18,4.59-1.28.2.05,1.13,1.28,1.28,1.28.22,0,.75-1.95,3.83-1.28,2.87.63,3.08,5.88,0,6.38-1.5.24-2.42-.51-2.55-.51-4.3-.04-8.59.03-12.89,0Z"/>
                <path class="cls-8" d="M176.61,77.11c.18,2.2,0,3.83-.77,5.87-3.56-1.02-17.58,2.52-17.35-2.93.15-3.56,4.57-3.9,6.76-1.91,2.71-1.86,7.86-.65,11.36-1.02Z"/>
                <path class="cls-8" d="M49.51,66.65c.47,3.8.95,1.11,1.66,1.02.3-.04,5.86.35,6.12.51,3.4,2.1-2.94,10.19-6.38,3.32-.56-.19-2.13,2.89-6,.51.82-2.31,2.21-4.33,4.59-5.36Z"/>
                <g>
                  <path class="cls-22" d="M176.61,77.11c-3.49.37-8.64-.84-11.36,1.02-2.2-1.98-6.62-1.65-6.76,1.91-.22,5.45,13.8,1.92,17.35,2.93-2.92,7.72-20.2,19.45-28.84,20.29,6.24-11.07,7.84-24.12,8.55-36.62h14.29c3.83,1.97,6.41,6.16,6.76,10.46Z"/>
                  <path class="cls-8" d="M164.23,67.41c5.85-.69,4.76,8.23-.77,6.12-2.81-1.07-2.25-5.77.77-6.12Z"/>
                  <path class="cls-8" d="M156.06,89.62c5.06-1.37,4.82,5.99,2.04,6.64-4.53,1.06-4.92-5.85-2.04-6.64Z"/>
                </g>
                <g>
                  <path class="cls-22" d="M45.18,82.98c4.3.03,8.59-.04,12.89,0,.13,0,1.06.75,2.55.51,3.08-.5,2.87-5.75,0-6.38-3.08-.67-3.61,1.28-3.83,1.28-.14,0-1.07-1.22-1.28-1.28-3.45-.9-4.22,1.33-4.59,1.28-.38-.05.46-1.86-7.02-1.28.03-1.76.43-3.45,1.02-5.1,3.87,2.38,5.44-.7,6-.51,3.44,6.88,9.78-1.22,6.38-3.32-.26-.16-5.82-.55-6.12-.51-.71.09-1.19,2.78-1.66-1.02q8.04.06,16.08.13c-.28,12.37,2.28,25.3,8.17,36.24-9.43.08-24.96-11.79-28.58-20.03Z"/>
                  <path class="cls-8" d="M62.91,89.62c5.43-.83,4.95,9.85-.77,6.12-2.51-1.63-1.99-5.71.77-6.12Z"/>
                </g>
                <g>
                  <g>
                    <path class="cls-17" d="M142.15,97.27c-2.73-3.23-4.65,1.51-.26.51-1.38,2.84-2.94,5.49-4.59,8.17-2.64-.61-3.65.05-1.02,1.79-3.52,5.39-4.29,6.28-8.93,10.72-.82-.61-1.4-2.75-2.55-.89-1.03,1.66,1.4.67,1.79,1.66-4.52,4.13-9.17,8.12-15.7,8.42-11.22.52-23.9-14.86-28.97-23.86-12.33-21.92-9.35-37.34-9.95-61.51q38.47-.06,76.95-.13c-.12,19.02,1.56,37.52-6.76,55.12Z"/>
                    <g>
                      <path class="cls-1" d="M142.15,97.27c-.08.18-.17.34-.26.51-4.4,1-2.48-3.74.26-.51Z"/>
                      <path class="cls-11" d="M127.35,118.45c-.26.25-.48.51-.77.77-.38-.98-2.82,0-1.79-1.66,1.15-1.85,1.73.29,2.55.89Z"/>
                      <path class="cls-6" d="M137.31,105.95c-.36.59-.63,1.19-1.02,1.79-2.63-1.73-1.62-2.4,1.02-1.79Z"/>
                      <path class="cls-11" d="M99.92,52.61c2.92,5.35-.47,3.29-.77,3.32-.97.1-.58.52-.77.51-5.14-.24-5.77-4.08-4.08-3.57.22.07,1.2,2.84,3.57,2.55,2.38-.29-.16-2.06,2.04-2.81Z"/>
                      <path class="cls-19" d="M83.07,52.87c2.08-.25.11,2.04,1.79,2.55.74.23,6.53-3.06,6.51-.38,0,1.36-1.65-.3-2.68-.13-.08.01-1.2,1-1.28,1.02-4.51,1.23-2.59-.31-6-1.91-.11-.43,1.56-1.14,1.66-1.15Z"/>
                      <path class="cls-7" d="M126.2,104.42c1.15.83,5.01.07,3.45,2.68-1.32,2.2-6.57-.32-3.45-2.68Z"/>
                      <path class="cls-11" d="M113.7,53.38c1.15-.52,1.36,1.21,1.79,1.53.14.1,3.7-.13,0,1.28-.15-1.33-3.09.55-6.12-.26-.98-.26-1.95-1.86-.77-2.3,1.65-.61,1.52,1.65,1.79,1.79.12.07,2.69.08,2.81,0,.37-.26-.22-1.71.51-2.04Z"/>
                      <path class="cls-11" d="M138.96,52.87c2.23-.06-1.94,2.93-2.55,3.06-3.94.87-6.57-3.39-3.32-2.55.23.06,1.29,1.46,1.53,1.53,1.95.55,4.03-2.03,4.34-2.04Z"/>
                      <path class="cls-1" d="M135.39,62.82c1.52-.73,7.34.55,4.08,1.79-2.04.78-6.31-.72-4.08-1.79Z"/>
                      <path class="cls-26" d="M91.24,79.92c.69-.16,5.42-.26,4.98.89-.51,1.33-10.29.34-4.98-.89Z"/>
                      <path class="cls-11" d="M108.34,87.83c.19-.11,4.2-.19,3.96,1.15-.26,1.44-7.2.62-3.96-1.15Z"/>
                      <path class="cls-11" d="M109.87,104.93c.95-.39,6.05,2.23,2.3,2.55-.99-2.13-1.27.57-2.55-.51-.68-.57-.47-1.74.26-2.04Z"/>
                      <path class="cls-1" d="M79.5,88.08c4.02-1.76,6.06,3.17.77,1.79-.83-.22-1.67-1.39-.77-1.79Z"/>
                      <path class="cls-1" d="M108.59,96.25c4.3-1.12,4.72,2.95.26,1.79-1.03-.27-1.66-1.42-.26-1.79Z"/>
                      <path class="cls-1" d="M137.18,87.57c.44-.34,1.27.91,1.79,1.02,1.86.39,4.23-1.59,3.96-.13-.42,2.28-7.8.68-5.74-.89Z"/>
                      <path class="cls-11" d="M87.67,105.44c2.98-1.01,2.78,3.61,0,2.3-1.33-.63-.68-2.07,0-2.3Z"/>
                      <path class="cls-11" d="M96.09,116.92c.53-.25,3.87-.27,3.19,1.15-.59,1.23-5.54-.04-3.19-1.15Z"/>
                      <path class="cls-11" d="M92.77,87.83c1.84-.26,2.33,1.87,1.02,2.3-2,.65-2.98-2.02-1.02-2.3Z"/>
                      <path class="cls-9" d="M102.98,96.25c1.96-.51,2.35,2.05.77,2.3-1.62.25-2.17-1.93-.77-2.3Z"/>
                      <path class="cls-11" d="M132.58,70.73c1.84-.56,2.51,2.04.77,2.3-1.59.24-2.01-1.92-.77-2.3Z"/>
                      <path class="cls-18" d="M120.84,96.25c2-.8,2.23,2.1.77,2.3-1.03.13-2.14-1.74-.77-2.3Z"/>
                      <path class="cls-11" d="M104.77,53.38c1.36-.11,2.22,2.12.51,2.3-1.81.19-2.14-2.16-.51-2.3Z"/>
                      <path class="cls-1" d="M77.2,71.24c1.87-.44,1.66,1.76,1.02,2.04-1.89.84-2.78-1.63-1.02-2.04Z"/>
                      <path class="cls-11" d="M85.88,88.08c1.77-.65,2.6,1.61,1.28,2.04-1.41.46-2.67-1.53-1.28-2.04Z"/>
                      <path class="cls-11" d="M126.2,70.99c.82-.28,2.36.47,1.91,1.4-.76,1.58-4.2-.63-1.91-1.4Z"/>
                      <path class="cls-11" d="M124.42,79.41c.18-.05,1.41-.04,1.53,0,5.42,1.99-6.88,1.41-1.53,0Z"/>
                      <path class="cls-1" d="M79.76,79.92c1.23-.88,4.75.97,2.04,1.53-.67.14-3.33-.62-2.04-1.53Z"/>
                      <path class="cls-11" d="M97.88,87.83c1.03-.07,2.07,1.57.77,2.04-2.08.76-2.45-1.93-.77-2.04Z"/>
                      <path class="cls-1" d="M87.92,96.51c.8-.21,2.35.99,1.28,1.79-1.3.97-3.5-1.21-1.28-1.79Z"/>
                      <path class="cls-11" d="M121.87,105.44c.97-.17,2.02,1.54,1.02,2.04-2.04,1.02-2.45-1.79-1.02-2.04Z"/>
                      <path class="cls-1" d="M81.03,95.74c1.9-.45,1.32,2.94-1.02,2.04-.92-.35.89-2.01,1.02-2.04Z"/>
                      <path class="cls-11" d="M128.25,53.89c1.47.36.08,2.25-2.04,1.53-2.11-.71,1.11-1.76,2.04-1.53Z"/>
                      <path class="cls-11" d="M135.9,96.51c1.57-.56,2.53,1.7,1.02,2.04-1.43.33-2.11-1.65-1.02-2.04Z"/>
                      <path class="cls-11" d="M116.25,105.44c1.45-.42,1.88,1.71.77,2.04-1.55.47-2.05-1.67-.77-2.04Z"/>
                      <path class="cls-7" d="M117.27,116.67c1.14-.07,1.77,2.11.26,2.3-1.66.2-1.53-2.21-.26-2.3Z"/>
                      <path class="cls-11" d="M105.53,105.44c1.07-.19,2.01,1.62.77,2.04-1.86.63-1.99-1.82-.77-2.04Z"/>
                      <path class="cls-11" d="M94.05,96.25c1.37-.01,1.67,2.74-.51,2.04-1.25-.4-.27-2.04.51-2.04Z"/>
                      <path class="cls-1" d="M131.82,62.82c1.32-.49,2.3,1.28,1.28,1.79-1.73.85-2.53-1.32-1.28-1.79Z"/>
                      <path class="cls-11" d="M110.89,116.92c1.41-.48,2.18,1.37,1.02,1.79-1.81.65-2.16-1.4-1.02-1.79Z"/>
                      <path class="cls-26" d="M145.6,70.73c.38-.29,2.61,2.12.26,3.06q-.13-1.53-.26-3.06Z"/>
                      <path class="cls-9" d="M127.23,96.51c1.43-.3,2.03,1.82.51,2.04-1.36.2-1.74-1.78-.51-2.04Z"/>
                      <path class="cls-7" d="M97.11,105.69c1.61-.29,1.69,1.96.26,2.04-1.3.08-1.65-1.79-.26-2.04Z"/>
                      <path class="cls-6" d="M105.53,116.92c.06-.03,1.22-.03,1.28,0,3.51,1.89-5.06,1.93-1.28,0Z"/>
                      <path class="cls-11" d="M101.19,105.69c1.48-.5,2.26,1.37,1.02,1.79-1.48.5-2.26-1.37-1.02-1.79Z"/>
                      <path class="cls-11" d="M122.38,70.99c1.55-.53,1.83,1.42,1.02,1.79-1.58.73-2.3-1.35-1.02-1.79Z"/>
                      <path class="cls-1" d="M75.42,62.56c.99.02,1.08,2.72-.51,2.3-1.58-.41.13-2.3.51-2.3Z"/>
                      <path class="cls-6" d="M100.94,116.92c.62-.3,2.44.04,1.91,1.15-.63,1.32-3.65-.3-1.91-1.15Z"/>
                      <path class="cls-11" d="M109.36,79.92c1.03-.32,2,1.03,1.02,1.79-1.19.93-2.51-1.33-1.02-1.79Z"/>
                      <path class="cls-11" d="M120.59,88.08c1.48-.5,2.13,1.46,1.02,1.79-1.3.38-2.37-1.33-1.02-1.79Z"/>
                      <path class="cls-11" d="M132.33,96.51c1.28-.12,1.55,1.91.26,2.04-1.43.15-1.52-1.92-.26-2.04Z"/>
                      <path class="cls-7" d="M93.28,105.69c1.86-.43,1.56,2.04.26,2.04-1.1,0-1.44-1.77-.26-2.04Z"/>
                      <path class="cls-11" d="M120.84,116.92c1.97-.67,1.84,2.34,0,1.79-.77-.23-.82-1.51,0-1.79Z"/>
                      <path class="cls-11" d="M103.24,70.99c1.68-.51,1.61,1.89.51,2.04-1.07.14-1.69-1.68-.51-2.04Z"/>
                      <path class="cls-16" d="M118.29,54.14c3.48-.86,4.39,1.86-.89.64,0-.08.79-.61.89-.64Z"/>
                      <path class="cls-1" d="M97.88,79.92c.6-.19,2.32.2,1.91,1.15-.55,1.27-3.69-.59-1.91-1.15Z"/>
                      <path class="cls-1" d="M81.8,71.24c1.51-.41,1.62,1.8.77,2.04-.99.28-1.93-1.73-.77-2.04Z"/>
                      <path class="cls-11" d="M104.51,79.92c1.75-.58,1.99,1.69.51,1.79-1.14.07-1.57-1.44-.51-1.79Z"/>
                      <path class="cls-7" d="M81.54,62.56c1.23-.58,1.58,1.66.77,2.04-1.47.68-1.46-1.71-.77-2.04Z"/>
                      <path class="cls-1" d="M144.32,62.56c1.52-.72,1.23,2.06.51,2.3-.76.24-1.39-1.88-.51-2.3Z"/>
                      <path class="cls-11" d="M120.33,79.41c.76,0,1.66,1.4.51,1.79-1.89.63-1.95-1.77-.51-1.79Z"/>
                      <path class="cls-11" d="M124.93,88.08c1.36-.63,2.45,1.56.77,1.79-.88.12-1.72-1.34-.77-1.79Z"/>
                      <path class="cls-11" d="M130.8,79.92c1.31-.4,1.9,1.44.77,1.79-1.31.4-1.9-1.44-.77-1.79Z"/>
                      <path class="cls-6" d="M107.32,70.99c1.31-.4,1.9,1.44.77,1.79-1.31.4-1.9-1.44-.77-1.79Z"/>
                      <path class="cls-11" d="M122.12,62.82c.81-.19,2.21,1.22,1.02,1.79-1.35.64-2.31-1.49-1.02-1.79Z"/>
                      <path class="cls-11" d="M99.15,96.25c.94-.23,1.96,1.4.77,1.79-1.74.56-1.71-1.55-.77-1.79Z"/>
                      <path class="cls-18" d="M112.42,70.99c.85-.1,1.75,1.32.77,1.79-1.45.69-2.25-1.61-.77-1.79Z"/>
                      <path class="cls-11" d="M118.29,62.82c1.47-.45,1.64,1.65.77,1.79-1.58.24-1.74-1.49-.77-1.79Z"/>
                      <path class="cls-1" d="M144.32,79.92c1.16.08.7,2.41-.26,2.3-.9-.11-.85-2.37.26-2.3Z"/>
                      <path class="cls-11" d="M102.21,62.82c1.22-.67,2.01,1.32,1.02,1.79-1.08.51-1.88-1.31-1.02-1.79Z"/>
                      <path class="cls-18" d="M115.74,71.24c.38-.19,1.86-.14,1.66.89-.31,1.6-3.43,0-1.66-.89Z"/>
                      <path class="cls-11" d="M114.21,96.51c.75-.33,1.95.47,1.66,1.15-.56,1.3-3.11-.51-1.66-1.15Z"/>
                      <path class="cls-11" d="M102.98,87.83c1.03-.15,1.63,1.45.51,1.79-1.6.48-1.57-1.63-.51-1.79Z"/>
                      <path class="cls-7" d="M93.79,62.82c1.59-.51,1.59,2.3,0,1.79-.65-.21-.65-1.58,0-1.79Z"/>
                      <path class="cls-1" d="M85.37,97.02c1.64-.26.65,2.33-.77,1.79-.99-.38.65-1.77.77-1.79Z"/>
                      <path class="cls-11" d="M99.66,71.24c.63-.3,1.73.15,1.4,1.15-.47,1.46-2.92-.43-1.4-1.15Z"/>
                      <path class="cls-1" d="M91.75,70.99c.81.13.9,2.05-.26,2.04-1.51,0-.51-2.16.26-2.04Z"/>
                      <path class="cls-1" d="M95.07,71.24c1.13-.53,1.74,1.5,1.02,1.79-.85.34-2.14-1.26-1.02-1.79Z"/>
                      <path class="cls-1" d="M84.61,62.82c1.12-.53,1.63,1.38.77,1.79-1.12.53-1.63-1.38-.77-1.79Z"/>
                      <path class="cls-1" d="M128.25,63.07c1.08-.59,2.05,1.04,1.02,1.53-1.29.62-1.81-1.1-1.02-1.53Z"/>
                      <path class="cls-26" d="M142.03,70.73c.34-.29.82.41.89.64,1.25,3.84-2.57.81-.89-.64Z"/>
                      <path class="cls-1" d="M98.39,62.56c.51,0,1.44,1.77.26,2.04-1.47.34-1.01-2.04-.26-2.04Z"/>
                      <path class="cls-15" d="M114.46,88.08c1.24-.36,1.85,1.22.77,1.53-1.24.36-1.85-1.22-.77-1.53Z"/>
                      <path class="cls-7" d="M140.75,79.66c1.22-.12.95,2.07,0,2.04-.88-.03-1.02-1.94,0-2.04Z"/>
                      <path class="cls-11" d="M106.81,62.82c.92.06.82,1.55.26,1.79-1.13.48-1.59-1.88-.26-1.79Z"/>
                      <path class="cls-1" d="M137.69,71.24c.96-.39,1.26,1.48.51,1.79-.96.39-1.26-1.48-.51-1.79Z"/>
                      <path class="cls-1" d="M76.95,79.66c.82-.34,1.76,1.07.77,1.53-1.05.49-1.63-1.17-.77-1.53Z"/>
                      <path class="cls-11" d="M122.89,53.38c.72-.31,1.7,1.12.77,1.53-1.34.58-1.52-1.21-.77-1.53Z"/>
                      <path class="cls-1" d="M86.9,71.24c.86-.02.86,1.53.26,1.79-1.27.54-1.15-1.76-.26-1.79Z"/>
                      <path class="cls-1" d="M89.45,63.07c1.26-.4,1.36,1.36.51,1.53-.91.19-1.47-1.23-.51-1.53Z"/>
                      <path class="cls-11" d="M136.16,80.43c.89-.13,1.11,1.41.26,1.53-.89.13-1.11-1.41-.26-1.53Z"/>
                      <path class="cls-24" d="M122.12,55.16c1.54-.22-.23,1.7-.38.38,0-.03.36-.38.38-.38Z"/>
                      <path class="cls-18" d="M128.25,83.24c.49-.26.78.79.26.77-.57-.03-.5-.64-.26-.77Z"/>
                    </g>
                  </g>
                  <g>
                    <path class="cls-14" d="M141.39,173.07c.05,4.21.59,10.76-1.15,11.23-2.93.8-52.69-.61-60.74,0-.26-.18-.11-4.82-.13-5.61,8.82-.04,56.41.89,59.85.26,2.86-.53,2.31-3.29,1.15-4.34,1.16.22.77-.8.51-1.53h.51Z"/>
                    <path class="cls-12" d="M141.39,168.73c.04,1.44-.02,2.89,0,4.34h-.51c-.48-1.36-2.47-3.23-4.08-2.3l.51-.38c-1.5-.74-2.07-.13-2.55-.13-1.23.01-2.47-.01-3.7,0-.46,1.3-1.65,2.06-2.42,3.06l-.77-.51c3.48-3.45,2.77-2.46-6.12-2.55-.45,0-.82,0-1.28,0-2.23.04-10.79-.78-6.12,2.17.19,1.18-.48.85-.51.89-.02-.32-.55-.32-.77-.51-1.2-1.06-.9-2.32-1.4-2.55-1.85-.86-5.4,1.75-7.15,2.55-.53.25-3.2.99-3.7,1.28-1.34.16-.95-.98-1.02-1.02,5.26-3.48,1.06-2.72-5.61-2.3-.17.01-.21.2-.77.26-.07,0,0-.71-1.4-.51-1.62,4.16-4.56,5-4.34,0-7.62-1.04-3.99,3.75-8.29,3.32.02-1.7-.05-3.41,0-5.1h62.02Z"/>
                    <path class="cls-23" d="M93.41,171.03c0,2.03-3.38,4.34-4.98,5.87-.59.06-4.7-6.52-5.49-2.68-.26,1.25,2.61,2.31,1.15,3.19-2.6,1.56-3.22-3.52-4.72-1.53,0-.68,0-1.36,0-2.04,4.31.43.68-4.36,8.29-3.32-.22,5,2.72,4.16,4.34,0,1.41-.2,1.33.52,1.4.51Z"/>
                    <path class="cls-23" d="M140.88,173.07c.26.74.65,1.75-.51,1.53-1.66-1.51-5.36.66-4.34-2.93.02-.06.71-.86.77-.89,1.61-.93,3.6.94,4.08,2.3Z"/>
                    <path class="cls-5" d="M113.06,172.81c-2.07,3.83-2.24-2.65-6.76,2.81-1.75-.26-4.59,1.99-4.85,2.04-1.62.3-4.1-1.59-.64-3.57.5-.28,3.17-1.03,3.7-1.28,1.75-.8,5.29-3.41,7.15-2.55.51.23.21,1.49,1.4,2.55Z"/>
                    <path class="cls-23" d="M120.46,170.26q-1.4,1.6-2.81,3.19c5.63.63.62,6.93-1.91,1.91-.7,1.88-3.5-.06-3.45-.64.02-.24,1.33-1.15,1.53-1.4.03-.04.7.29.51-.89-4.67-2.95,3.9-2.13,6.12-2.17Z"/>
                    <path class="cls-5" d="M99.79,173.07c-2.71-1.67-7.84,6.07-7.66,2.68.08-1.42,3.14-1.97,2.04-4.98,6.68-.43,10.87-1.18,5.61,2.3Z"/>
                    <path class="cls-5" d="M127.86,172.81c-.78.78-1.34,1.97-1.91,1.79-.23-.99-1.37-1.4-1.4-1.66-.12-.86,3.35-4.58-2.42,1.4-4.4-1.61-.5-1.95-.38-4.08,8.9.09,9.6-.9,6.12,2.55Z"/>
                    <path class="cls-5" d="M134.75,170.26c-.13,5.49-2.09,2.65-2.68,2.81-.18.05-1.89,2.61-2.55,2.81-4.01,1.19-2.05-1.06-.89-2.55.78-1,1.96-1.76,2.42-3.06,1.23-.01,2.47.01,3.7,0Z"/>
                    <g>
                      <path class="cls-12" d="M121.74,170.26c-.12,2.13-4.02,2.47.38,4.08,5.77-5.99,2.3-2.27,2.42-1.4.04.26,1.18.67,1.4,1.66.58.19,1.13-1.01,1.91-1.79l.77.51c-1.16,1.49-3.12,3.74.89,2.55.66-.2,2.37-2.76,2.55-2.81.59-.16,2.55,2.68,2.68-2.81.48,0,1.05-.62,2.55.13l-.51.38c-.05.03-.75.84-.77.89-1.02,3.6,2.68,1.43,4.34,2.93,1.16,1.05,1.71,3.81-1.15,4.34-3.44.64-51.03-.3-59.85-.26-.03-.93.01-1.87,0-2.81,1.5-1.99,2.12,3.1,4.72,1.53,1.46-.88-1.41-1.94-1.15-3.19.78-3.84,4.9,2.74,5.49,2.68,1.59-1.53,4.97-3.84,4.98-5.87.55-.06.59-.24.77-.26,1.1,3.01-1.96,3.55-2.04,4.98-.18,3.4,4.95-4.35,7.66-2.68.07.05-.32,1.18,1.02,1.02-3.46,1.98-.98,3.88.64,3.57.26-.05,3.1-2.3,4.85-2.04,4.52-5.46,4.7,1.02,6.76-2.81.22.19.75.19.77.51-.2.26-1.51,1.16-1.53,1.4-.05.58,2.74,2.52,3.45.64,2.54,5.02,7.55-1.28,1.91-1.91q1.4-1.6,2.81-3.19c.45,0,.83,0,1.28,0Z"/>
                      <path class="cls-5" d="M134.63,173.83c2.11-.6,2.47,4.15-.26,3.06-1.16-.46-.56-2.83.26-3.06Z"/>
                      <path class="cls-5" d="M132.07,174.6c2.26-.63-.51,4.04-2.04,3.06-.49-.31,1.85-3.01,2.04-3.06Z"/>
                      <path class="cls-5" d="M123.91,174.09c1.35-.09,2.16,1.73-.51,2.55.33-.92-.91-.19-1.15-.89-.07-.21,1.27-1.63,1.66-1.66Z"/>
                      <path class="cls-23" d="M115.49,176.39c.7-.06,1.31,1.19.51,1.53-1.49.63-1.6-1.43-.51-1.53Z"/>
                    </g>
                    <g>
                      <path class="cls-23" d="M141.39,168.73h-62.02c.02-.61-.13-3.9.13-4.08,2.53-.47,10.8,1.35,11.61-1.91.55-2.22-.93-30.76-.13-37.13,13.91,13.02,24.42,11.31,39.05.51.8,6.6-.63,34.34-.13,36.62.76,3.44,8.7,1.34,11.36,1.91.26.18.11,3.47.13,4.08Z"/>
                      <path class="cls-19" d="M118.8,135.04c.26.19-.05,4.62-.51,4.85-2.01.98-.57-1.7-1.79-2.3-1.91-.93-1.37,3.2-2.93,1.66-.25-6.34.76.18,5.23-4.21Z"/>
                      <path class="cls-26" d="M104.51,136.06c1.77-.56,1.5,4.29,4.08.77l.38.38c-.33.23-1.78,1.91-1.91,1.91-.23,0-3.28-2.84-2.55-3.06Z"/>
                      <g>
                        <path class="cls-11" d="M96.34,135.3c5.07-.76,9.64,6.05,5.1,3.32-5.24,4.99-10.36-2.53-5.1-3.32Z"/>
                        <path class="cls-3" d="M96.09,136.06c3.04-.99,6.37,2.25,2.81,3.32-3.3.99-4.92-2.63-2.81-3.32Z"/>
                      </g>
                      <g>
                        <path class="cls-11" d="M122.89,135.04c5.03-.89,5.33,6.53-.26,5.36-3.1-.65-2.59-4.86.26-5.36Z"/>
                        <path class="cls-28" d="M122.38,136.06c4.33-1.42,4.58,4.15.77,3.57-2.1-.32-2.11-3.13-.77-3.57Z"/>
                      </g>
                    </g>
                  </g>
                </g>
              </g>
            </g>
          </g>
        </g>
      </g>
    </g>
  </g>
</svg>