<?xml version="1.0" encoding="UTF-8"?>
<svg id="_Шар_2" data-name="Шар 2" xmlns="http://www.w3.org/2000/svg" viewBox="0 0 266.36 35.79">
  <defs>
    <style>
      .cls-1 {
        stroke-width: 0px;
      }

      .cls-1, .cls-2 {
        fill: #fff;
      }

      .cls-2 {
        font-family: Arial-BoldMT, Arial;
        font-size: 29px;
        font-weight: 700;
        letter-spacing: .06em;
      }
    </style>
  </defs>
  <g id="Home_Page" data-name="Home Page">
    <g id="Logo">
      <text class="cls-2" transform="translate(41.66 24.88)"><tspan x="0" y="0">SCRIPTKIDDIE</tspan></text>
      <g>
        <path class="cls-1" d="M16.4,16.63c1.49-.16,2.28,1.09,1.43,2.3,1.2.19,4.78-.18,5.74.08,1.24.34,1.29,2.27-.2,2.52h-13.62c-1.71-.36-1.28-2.38-.13-2.56.67-.1,4.82.04,5.95,0-.55-.88-.35-2.23.84-2.35Z"/>
        <g>
          <path class="cls-1" d="M5.44,3.81h17.09c.39-.03.32,1.4.29,1.53-.03.13-.24.25-.35.29-2.26-.09-16.06.18-16.89.03-.01,0-.22-.09-.24-.1-.22-.17-.28-1.65.1-1.75Z"/>
          <path class="cls-1" d="M21.25,1.12c1.04.05,6.14-.07,6.46,0,.11.02.33.24.35.35.07.31.06,5.95,0,6.26-.01.07-.12.27-.19.32-.19.15-1.64.15-1.85.03-.06-.03-.21-.23-.22-.29-.07-.3.05-3.69,0-4.51-.72-.14-4.32.05-4.66-.08-.05-.02-.21-.2-.22-.25-.03-.14-.12-1.89.32-1.83Z"/>
        </g>
        <path class="cls-1" d="M26.29,16.63c.34-.06,1.74-.12,1.77.42-.07,1.16.09,7.74,0,8.14-.01.06-.16.26-.22.29-.1.05-1.91.29-2.04-.29-.09-.4.07-6.96,0-8.14.08-.22.25-.38.49-.42Z"/>
        <path class="cls-1" d="M1.6,1.12c.25-.05,4.96-.06,5.21,0,.09.02.3.22.32.32.02.08.02,1.47,0,1.55-.02.08-.21.24-.29.25-.25.06-4.96.06-5.21,0-.11-.02-.33-.24-.35-.35-.02-.07-.02-1.38,0-1.45.02-.11.2-.29.32-.32Z"/>
        <path class="cls-1" d="M10.65,24.33c.13-.03,2.49-.02,2.62,0,1,.17,1,1.96.1,2.12-.14.02-2.62.02-2.76,0-.94-.17-.85-1.95.03-2.12Z"/>
        <path class="cls-1" d="M5.6,12.02c.1-.03,2.02-.02,2.12,0,.1.02.56.42.59.52l-.03,1.58c-.29-.02-2.24.08-2.34.02-.15-.1.32-.46-.52-.49.07-.31-.16-1.54.19-1.63Z"/>
        <g>
          <path class="cls-1" d="M.53,5.8c.4-.07,1.66-.11,1.77.42.08.39-.06,6.01,0,7.16-.01.04-.18.23-.22.25-.1.05-1.91.32-2.04-.32C-.03,12.97,0,6.53.07,6.18c.04-.19.27-.36.45-.39Z"/>
          <path class="cls-1" d="M3.62,7.72c.08-.01,1.56-.01,1.65,0,.89.15.81,1.74.34,2.02-.25.14-2.08.22-2.42-.1-.37-.34-.38-1.77.44-1.92Z"/>
        </g>
        <g>
          <path class="cls-1" d="M6.28,24.33c.11-.02,2.14-.02,2.25,0,.99.17.99,1.96.1,2.12-.13.02-2.43.02-2.56,0-.81-.15-.78-1.96.2-2.12Z"/>
          <path class="cls-1" d="M4.46,26.99c.08-.01,1.59-.01,1.68,0,.88.14.84,1.77.24,2.02-.33.14-1.99.12-2.29-.1-.46-.34-.44-1.78.37-1.92Z"/>
        </g>
        <path class="cls-1" d="M17.38,12.05c.34.04,2.16-.08,2.29.07l.05,1.56c-1.03-.07-.5.34-.66.45-.09.06-2.03.05-2.12,0-.17-.09-.14-1.5-.12-1.6.06-.25.43-.25.56-.49Z"/>
        <g>
          <path class="cls-1" d="M10.01,12.02c.4.03,2.09-.04,2.22,0,.23.08.07,1.36.12,1.63-.94-.08-.44.38-.59.49-.09.06-2.05.03-2.15,0-.23-.08-.07-1.39-.12-1.67l.52-.45Z"/>
          <path class="cls-1" d="M12.1,14.54c.1-.01,1.47-.01,1.58,0,1.02.14.85,1.58.56,1.87-.29.28-2.28.27-2.57.02-.3-.26-.48-1.75.44-1.88Z"/>
        </g>
        <path class="cls-1" d="M12.6,7.61c.88.14,2.14-.38,2.71.49.03,2.14.24,1.46-2.34,1.56-.07-.57-.29-.24-.5-.34-.08-.04-.15-1.74.13-1.72Z"/>
        <path class="cls-1" d="M21.11,14.54c.36-.05,1.67-.04,1.95.17.41.31.5,1.74-.27,1.88-.31.06-1.89.03-2.12-.13-.34-.24-.56-1.78.44-1.92Z"/>
        <g>
          <path class="cls-1" d="M16.74,24.33c.21-.04,4-.03,4.2,0,.99.16,1.04,1.75.34,2.05-.22.09-4.37.12-4.68.07-.92-.17-.84-1.95.13-2.12Z"/>
          <g>
            <path class="cls-1" d="M21.28,26.96c2.62.09,2.36-.56,2.34,1.73-.77.11-.41.26-.56.32-.1.05-1.99-.01-2.29-.03l-.05-1.36.56-.66Z"/>
            <path class="cls-1" d="M15.33,26.96h1.95c.3.28.3.69.79.66v1.35l-2.71.05-.08-.08.05-1.97Z"/>
          </g>
        </g>
      </g>
    </g>
  </g>
</svg>