<?xml version="1.0" encoding="UTF-8"?>
<svg id="_Шар_2" data-name="Шар 2" xmlns="http://www.w3.org/2000/svg" xmlns:xlink="http://www.w3.org/1999/xlink" viewBox="0 0 859.89 760.43">
  <defs>
    <style>
      .cls-1 {
        fill: #52daf7;
      }

      .cls-1, .cls-2, .cls-3, .cls-4, .cls-5, .cls-6, .cls-7, .cls-8, .cls-9, .cls-10, .cls-11, .cls-12, .cls-13, .cls-14, .cls-15, .cls-16, .cls-17, .cls-18, .cls-19, .cls-20, .cls-21, .cls-22, .cls-23, .cls-24, .cls-25, .cls-26, .cls-27, .cls-28, .cls-29, .cls-30, .cls-31, .cls-32, .cls-33, .cls-34, .cls-35, .cls-36, .cls-37, .cls-38, .cls-39, .cls-40, .cls-41, .cls-42, .cls-43, .cls-44, .cls-45, .cls-46, .cls-47, .cls-48, .cls-49, .cls-50, .cls-51, .cls-52 {
        stroke-width: 0px;
      }

      .cls-2 {
        fill: #4c5f8d;
      }

      .cls-3 {
        fill: #574b89;
      }

      .cls-4 {
        fill: #7585b1;
      }

      .cls-5 {
        fill: url(#_Градієнт_без_назви_66);
      }

      .cls-6 {
        fill: #040614;
      }

      .cls-7 {
        fill: url(#_Градієнт_без_назви_65);
      }

      .cls-8 {
        fill: #1c183c;
      }

      .cls-9 {
        fill: url(#_Градієнт_без_назви_69);
      }

      .cls-10 {
        fill: #ba6fb0;
      }

      .cls-11 {
        fill: #55b3f4;
      }

      .cls-12 {
        fill: #0db2d4;
      }

      .cls-13 {
        fill: #024973;
      }

      .cls-14 {
        fill: #d3c3e9;
      }

      .cls-15 {
        fill: url(#_Градієнт_без_назви_70);
      }

      .cls-16 {
        fill: #873279;
      }

      .cls-17 {
        fill: #7b6ba3;
      }

      .cls-18 {
        fill: #008ab2;
      }

      .cls-19 {
        fill: #9d9bca;
      }

      .cls-20 {
        fill: url(#_Градієнт_без_назви_67);
      }

      .cls-21 {
        fill: url(#_Градієнт_без_назви_75);
      }

      .cls-22 {
        fill: #5a709f;
      }

      .cls-23 {
        fill: #55265c;
      }

      .cls-24 {
        fill: #77427f;
      }

      .cls-25 {
        fill: #6c518e;
      }

      .cls-26 {
        fill: #8be5f6;
      }

      .cls-27 {
        fill: #6083bf;
      }

      .cls-28 {
        fill: #b994bd;
      }

      .cls-29 {
        fill: #336aa6;
      }

      .cls-30 {
        fill: #52cbf9;
      }

      .cls-31 {
        fill: #007999;
      }

      .cls-32 {
        fill: #006382;
      }

      .cls-33 {
        fill: #ddb1da;
      }

      .cls-34 {
        fill: #7ba8de;
      }

      .cls-35 {
        fill: #391c4b;
      }

      .cls-36 {
        fill: #3f3e78;
      }

      .cls-37 {
        fill: #026da2;
      }

      .cls-38 {
        fill: #a74489;
      }

      .cls-39 {
        fill: #005f8d;
      }

      .cls-40 {
        fill: url(#_Градієнт_без_назви_73);
      }

      .cls-41 {
        fill: #051b2f;
      }

      .cls-42 {
        fill: #c1a9de;
      }

      .cls-43 {
        fill: #e0e8f4;
      }

      .cls-44 {
        fill: #b4539e;
      }

      .cls-45 {
        fill: #c4ddec;
      }

      .cls-46 {
        fill: #012b47;
      }

      .cls-47 {
        fill: #237cb8;
      }

      .cls-48 {
        fill: #315786;
      }

      .cls-49 {
        fill: url(#_Градієнт_без_назви_72);
      }

      .cls-50 {
        fill: #003953;
      }

      .cls-51 {
        fill: url(#_Градієнт_без_назви_64);
      }

      .cls-52 {
        fill: #0f9fd3;
      }
    </style>
    <linearGradient id="_Градієнт_без_назви_69" data-name="Градієнт без назви 69" x1="2141.18" y1="3290.7" x2="2130.35" y2="3368.03" gradientTransform="translate(4460.33 -965.37) rotate(103.4)" gradientUnits="userSpaceOnUse">
      <stop offset="0" stop-color="#028dc2"/>
      <stop offset="1" stop-color="#005b7c"/>
    </linearGradient>
    <linearGradient id="_Градієнт_без_назви_64" data-name="Градієнт без назви 64" x1="2229.57" y1="3190.58" x2="2215.68" y2="3251.26" gradientTransform="translate(4460.33 -965.37) rotate(103.4)" gradientUnits="userSpaceOnUse">
      <stop offset="0" stop-color="#0384b8"/>
      <stop offset="1" stop-color="#015475"/>
    </linearGradient>
    <linearGradient id="_Градієнт_без_назви_65" data-name="Градієнт без назви 65" x1="2556.67" y1="3460.51" x2="2530.13" y2="3564.8" gradientTransform="translate(4460.33 -965.37) rotate(103.4)" gradientUnits="userSpaceOnUse">
      <stop offset="0" stop-color="#079ace"/>
      <stop offset=".6" stop-color="#022643"/>
      <stop offset="1" stop-color="#01678a"/>
    </linearGradient>
    <linearGradient id="_Градієнт_без_назви_66" data-name="Градієнт без назви 66" x1="1969.95" y1="3665.95" x2="1921.25" y2="3758.36" gradientTransform="translate(4460.33 -965.37) rotate(103.4)" gradientUnits="userSpaceOnUse">
      <stop offset="0" stop-color="#0290c2"/>
      <stop offset=".65" stop-color="#031d38"/>
      <stop offset="1" stop-color="#006284"/>
    </linearGradient>
    <linearGradient id="_Градієнт_без_назви_67" data-name="Градієнт без назви 67" x1="2420.38" y1="3319.8" x2="2400.24" y2="3390.85" gradientTransform="translate(4460.33 -965.37) rotate(103.4)" gradientUnits="userSpaceOnUse">
      <stop offset="0" stop-color="#0189bf"/>
      <stop offset=".59" stop-color="#051126"/>
      <stop offset="1" stop-color="#005a7d"/>
    </linearGradient>
    <linearGradient id="_Градієнт_без_назви_73" data-name="Градієнт без назви 73" x1="2034.08" y1="3425.69" x2="2001.72" y2="3511.59" gradientTransform="translate(4460.33 -965.37) rotate(103.4)" gradientUnits="userSpaceOnUse">
      <stop offset="0" stop-color="#0191c5"/>
      <stop offset=".67" stop-color="#041731"/>
      <stop offset="1" stop-color="#005376"/>
    </linearGradient>
    <linearGradient id="_Градієнт_без_назви_70" data-name="Градієнт без назви 70" x1="2453.21" y1="3707.86" x2="2433.54" y2="3792.11" gradientTransform="translate(4460.33 -965.37) rotate(103.4)" gradientUnits="userSpaceOnUse">
      <stop offset="0" stop-color="#028ac0"/>
      <stop offset=".6" stop-color="#051a33"/>
      <stop offset="1" stop-color="#015c7e"/>
    </linearGradient>
    <linearGradient id="_Градієнт_без_назви_72" data-name="Градієнт без назви 72" x1="2290.39" y1="3460.47" x2="2267.69" y2="3475.85" gradientTransform="translate(4460.33 -965.37) rotate(103.4)" gradientUnits="userSpaceOnUse">
      <stop offset="0" stop-color="#a174ae"/>
      <stop offset="1" stop-color="#43447d"/>
    </linearGradient>
    <linearGradient id="_Градієнт_без_назви_75" data-name="Градієнт без назви 75" x1="2255.77" y1="3498.25" x2="2174.43" y2="3708.87" gradientTransform="translate(4460.33 -965.37) rotate(103.4)" gradientUnits="userSpaceOnUse">
      <stop offset="0" stop-color="#705e96"/>
      <stop offset=".42" stop-color="#1c2959"/>
      <stop offset="1" stop-color="#5b5c92"/>
    </linearGradient>
  </defs>
  <g id="Home_Page" data-name="Home Page">
    <g>
      <path class="cls-45" d="M92.08,513.85l-3.98-1.49c-8.67,18.25-27.14,34.87-33.48,49.51-8.21,6.74-12.77,20.3-20.92,28.64,4.37,6.05,9.39,17.86,13.85,14.69-4.64,7.85-5.66,11.8-6.16,21.31-.82-11.19,2.1-15.36,1.98-17.42-.13-2.29-22.32-32.76-25.63-38.1-6.15-9.93-11.06-20.65-17.74-30.25,1.65-1.13,1.72-3.24,1.88-3.35,5.73-3.72,7.99-.8,13.61-7.06,7.09-4.84,53.4-36.51,54.96-39.51.1-.2-1.07-1.05-.66-1.78.13.11,1.36.7,2.83,1.76-17.56,15.56-37.51,27.82-55.7,42.59-1.39,1.13-13.17,2.89-10.85,13.68.58,2.71,21.68,33.91,25.41,41.3,20.87-28.09,41.13-56.8,60.07-86.01.48-.73,1.49-.18,2.17-.02-2.01,5.25-1.34,9.32-1.66,11.53Z"/>
      <g>
        <path class="cls-46" d="M338.32,472.72c-3.28,1.76-5.41,4.33-8.11,6.74-3.11,2.79-5.66,5.93-8.6,8.8-7.38,7.17-14.75,14.19-21.51,21.99-.05.06-1.08-.51-1.27.78-.54-.99-13.41-16.77-14.27-17.5q22.9-23.29,45.8-46.57c6.33,2.33,11.23,9.81,17.79,11.83,4.66,4.33-6.28,7.29-9.83,13.93Z"/>
        <path class="cls-26" d="M321.6,488.26c2.95-2.86,5.49-6.01,8.6-8.8,5.48,7.49,15.41,16.44,20.48,23.32,1.64,2.23,4.28,3.38,3.79,6.87-13.34-.62-23.22-13.13-32.87-21.39Z"/>
        <path class="cls-4" d="M520.36,687.44c0-.07-.7.28-.78-1.27-.16-3.08-2.49-15.89-3.27-18.13l64.22-23.75c.47.99,9.02,13.62,9.63,14.22q-34.9,14.46-69.8,28.93Z"/>
        <path class="cls-27" d="M665.12,106.97c-2.79.1-2.61,2.52-2.79,2.59-8.72,3.3-9.88-7.65-26.88,21.8-5.85-1.56-4.63-2.19-4.89-2.25l.24-1.03q6.17-8.83,12.34-17.67-23.28.96-46.55,1.93c-.03-.38-2.17-6.2-2.64-7.14q28.95-3.14,57.89-6.28,3.7-17.83,7.41-35.65c1.28.5,2.84.45,4.11.98-4.21,25.19-15.54,39.43,1.66,34.02-.22,1.3-.14,7.4.1,8.7Z"/>
        <path class="cls-47" d="M554.72,96.94q-16.88-22.46-33.77-44.92c.11-.13,1.47-2.31,1.76-2.83q17.91,22.7,35.82,45.41c-.89.59-3.66,2.18-3.81,2.35Z"/>
        <g>
          <path class="cls-46" d="M786.01,482.83c-1.24-1.02-1.97-2.37-3.98-1.49-4.2,1.82-56.27,52.81-67.4,59.87-17.86,18.27-14.14,20.83-14.98,21.92-.2.25-.05.77-.24,1.03-7.09,9.22-15.95,16.61-24.29,24.58-5.99-4.43-8.95-8.52-14.22-13.15-1.97-1.73-6.9-7.88-7.77-8.36,36.69-34.01,74.74-66.88,114.33-97.5,2.17-1.68,4.58-3.06,6.6-4.94.49,1.01,12.22,17.47,13,18.28l-1.03-.24Z"/>
          <path class="cls-46" d="M703.7,559.75c-.46.56-3.08,2.83-4.06,3.37.84-1.09-2.88-3.64,14.98-21.92,11.13-7.05,63.2-58.04,67.4-59.87,2.02-.87,2.74.48,3.98,1.49-28.75,24.18-58.25,47.94-82.31,76.92Z"/>
        </g>
        <g>
          <path class="cls-47" d="M311.27,640.9c-4.55-8.41-30.1-44.17-30.74-48.54-.54-3.65,1.13-1.89,2-3.86l32.3,51.08c-.93.31-3.42,1.2-3.57,1.32Z"/>
          <g>
            <path class="cls-46" d="M305.75,650.43c.82-3.62,2.58-7.25,5.52-9.53.15-.12,2.64-1.01,3.57-1.32,7.38-2.46,10.94-1.22,16.42,3.91,4.99,20.36-11.59,24.71-20.8,16.74-3.5-3.02-.56-9.46-4.72-9.8Z"/>
            <path class="cls-52" d="M308.98,664.21c-3.4-3.08-4.18-9.6-3.22-13.78,4.16.34,1.22,6.77,4.72,9.8,9.21,7.97,25.79,3.62,20.8-16.74,15.29,14.31-6.99,34.56-22.29,20.72Z"/>
          </g>
        </g>
        <path class="cls-48" d="M260.16,600.52c.22,0-.19-1.68,4.35-.05-.65.4-5.85,5.98-12.44,8.97-4.17-4.28,11.26-7.31,8.09-8.92Z"/>
        <path class="cls-2" d="M773.8,420.27q-12.44-13.81-24.87-27.62c.51-.25,7.45-6.51,8.36-7.77,2.37-1.53,15.68-12.59,16.23-13.49q13.85,14.69,27.71,29.38c-6.4,2.74-23.8,14.3-27.42,19.5Z"/>
        <g>
          <path class="cls-9" d="M773.51,371.39c-.55.9-13.85,11.96-16.23,13.49-36.8,23.7-79.64-2.25-81.74-43.87,3.29-19.45,8.54-37.3,26.98-47.26,17.64-9.53,36.12-7.81,52.25,3.77,21.22,15.24,22.91,44.97,20.2,67.72-2.39,5.74-1.3,5.89-1.47,6.16Z"/>
          <path class="cls-52" d="M774.97,365.23c2.7-22.75,1.02-52.48-20.2-67.72-16.13-11.58-34.61-13.3-52.25-3.77-18.44,9.96-23.69,27.81-26.98,47.26,2.1,41.62,44.94,67.57,81.74,43.87-.91,1.26-7.84,7.52-8.36,7.77-18.02,8.7-44.64,1.92-58.48-11.76-1.5-1.48-12.84-18.33-13.27-19.43-1.35-3.46-3.55-17.4-3.57-21.46-.01-4.03-.38-7.29-.34-7.67.11-1.05,4.35-17.14,5.92-20.28.51-1.23.42-3.08.98-4.11,6.43-11.82,30.55-26.34,44.23-26.34.82,0,6.85.7,8.46.93,2.23.32,10.73,2.32,12.32,2.93,11.23,4.36,23.38,16.73,28.71,27.45q16.39.65,32.77,1.3c0,.45,3,7.62,3.42,8.41q-15.68-.21-31.35-.42c3.62,14.69,2.02,29.2-3.74,43.03Z"/>
          <path class="cls-13" d="M812.66,325.4c-.12-.15-.72.7-2.59-2.79-.42-.79-3.43-7.95-3.42-8.41.15-8.77,13.28-16.95,23.7-8.45,1.64,16.36,1.07,23.77-17.69,19.65Z"/>
          <path class="cls-52" d="M812.66,325.4c18.76,4.12,19.33-3.29,17.69-19.65,13.27,10.82-2.92,37.1-17.69,19.65Z"/>
        </g>
        <g>
          <path class="cls-51" d="M813.52,494.8c-9.89-.64-19.64-4.65-26.49-11.73-.78-.81-12.51-17.27-13-18.28-9.99-20.48-1.48-40.5,16.82-52.39-2.95,8.11,15.61,2.47,18.94.17,1.74,3.08,10.77,1.94,14.34,1.25,3.59,4.12,14.96,11.22,18.47,4.4,31.12,31.67-10.59,62.99,8.3,56.21-7,10.25-24.75,21.2-37.39,20.38Z"/>
          <path class="cls-52" d="M850.91,474.43c-18.9,6.78,22.82-24.54-8.3-56.21-1.63-1.66-2.81-3.93-4.67-5.45-7.61-4.59-8.06-2.93-8.48-3.1-5.8-2.45-10.27-5.32-17.72-5.3-8.06.02-14.53,3.9-20.89,8.04-18.29,11.89-26.81,31.91-16.82,52.39-2.02,1.87-4.42,3.25-6.6,4.94-4.71-16.11-3.26-35.62,6.36-49.46,3.62-5.2,21.02-16.76,27.42-19.5,42.86-8.55,75.09,36.47,49.7,73.66Z"/>
          <path class="cls-39" d="M824.14,413.82c-3.57.69-12.61,1.84-14.34-1.25-3.33,2.3-21.89,7.94-18.94-.17,6.37-4.14,12.84-8.02,20.89-8.04,7.44-.01,11.92,2.86,17.72,5.3.25,7.51-3.76,3.85-5.33,4.15Z"/>
          <path class="cls-37" d="M824.14,413.82c1.56-.3,5.58,3.35,5.33-4.15.42.18.87-1.49,8.48,3.1,1.85,1.52,3.04,3.79,4.67,5.45-3.52,6.82-14.88-.29-18.47-4.4Z"/>
        </g>
        <path class="cls-2" d="M165.38,133.27q-15.98,1.07-31.96,2.15c2.22-5.64,3.19-12.49,1.08-18.18,8.08-2.23,16.57-2.5,24.78-3.86,1.54-.26,3.05-.82,4.59-1.07-.16,1.04,1.23,19.96,1.51,20.97Z"/>
        <path class="cls-22" d="M82.15,587.41c2.11-24.69,6.38-49.06,9.93-73.56.32-2.22-.35-6.28,1.66-11.53l.24-1.03c5.06,1.04,18.69.3,24.05-.78,2.4,1.41-.66,3.17-.98,4.11-2.91,8.44-11.08,54.99-12.81,67.45-1.06,7.59-4.24,14.41.54,25.07-4.69-3.4-17.33-9.12-22.63-9.73Z"/>
        <path class="cls-47" d="M730.81,168.17q-14.73-24.66-29.47-49.32c.14-.06,2.15-1.3,2.54-1.56q14.86,24.15,29.71,48.29c-.37.31-2.67,2.44-2.79,2.59Z"/>
        <path class="cls-45" d="M664.83,149.2c-2.36-2.3-7.35-4.75-10.07-7.82.07-.12-1.88-.79-.42-2.81.78-1.07,15.67-15.96,18.6-18.89.87-.87,2.41-2.24,3.81-2.35,2.23,1.81,5.28,2.29,7.97,2.98q-9.95,14.44-19.89,28.88Z"/>
        <path class="cls-37" d="M667.66,150.96c-.11-.13.36,1.36-2.83-1.76q9.95-14.44,19.89-28.88c1.29.33,2.9.9,4.11.98l-21.17,29.67Z"/>
        <g>
          <path class="cls-35" d="M672.94,119.68c-.63-.33-1.35-1.01-1.81-1.52-1.98-2.18-5.9-10.57-6.01-11.19-.24-1.3-.32-7.4-.1-8.7.17-1.02.44-2.09.73-3.08,4.95,3.42,6.25,18.29,10.99,22.14-1.4.11-2.94,1.48-3.81,2.35Z"/>
          <g>
            <path class="cls-16" d="M713.41,100.03c-4.45.74-1.5-1.55-6.96-4.91-3.91,14.49-31.1,27.71,1.73,17.77-.7,1.02-1.86,1.74-2.79,2.59-1.47,1.36-1.42,1.74-1.52,1.81-.39.26-2.41,1.5-2.54,1.56-2.05.95-9.93,2.61-12.51,2.44-1.21-.08-2.82-.65-4.11-.98-2.69-.69-5.73-1.17-7.97-2.98-4.74-3.85-6.05-18.72-10.99-22.14.86-2.92,3.56-7.16,5.52-9.53-6.15,17.59,10.24.77,9.14-6.5-.07-.48-4.14-8.27-4.45-8.65,2.91.14-2-3.54-2.64-7.14,1.02.44,2.44.17,3.32-.29l8.09,13.86c7.94-1.44,17.08,1.06,22.85,6.53.32.31,2.47,6.14,4.69,7.62.23,2.94,1.64,5.85,1.12,8.94Z"/>
            <path class="cls-8" d="M700.19,96.34c-.34,4.75-7.42,20.28-19.16,14.42-10.17-5.08-1.12-25.33,5.33-26.93,7.61-1.89,14.38,4.93,13.83,12.51Z"/>
            <path class="cls-10" d="M708.18,112.89c-32.84,9.94-5.64-3.28-1.73-17.77,5.46,3.37,2.52,5.65,6.96,4.91-.98,5.89-1.97,8.07-5.23,12.85Z"/>
            <path class="cls-24" d="M671.28,85.66c2.11-2.55,5.91-5.48,9.14-6.5,1.1,7.27-15.29,24.09-9.14,6.5Z"/>
          </g>
        </g>
        <g>
          <path class="cls-10" d="M676.66,63.08c-.89.46-2.31.73-3.32.29-.67-3.77,4.96-5.27,3.54-14.88,3.24-4.82,5.79-1.03,6.43-8.77,3.83,8.82,2.57,18.56-6.65,23.36Z"/>
          <g>
            <path class="cls-16" d="M675.98,70.51c-7.63-9.48-5.79-3.41-12.61-6.26-1.26-.53-2.83-.47-4.11-.98-25.61-10.11-12.33-42.69,11.64-35.19,6.18,1.93,9.94,5.94,12.41,11.63-.63,7.74-3.18,3.95-6.43,8.77,1.42,9.61-4.22,11.11-3.54,14.88.64,3.6,5.55,7.28,2.64,7.14Z"/>
            <path class="cls-35" d="M675.76,39.55c.41,3.72-6.17,16.65-10.66,19.7-35.62-17.08,8.38-40.31,10.66-19.7Z"/>
          </g>
        </g>
        <g>
          <path class="cls-43" d="M177.89,659.02c-4.9,3.93-10.21,7.7-15.62,10.92,4.98,3.75,3,15.2.73,19.7-.42.83-2.11-.07-2.17.02,1.87-2.01,3.06-6.43,3.23-8.99.06-.92-.52-4.27-.83-5.62-.21-.91-2.63-5.8-2.88-6.11,9.52-8.06,19.42-15.93,29.42-23.36,4.24-3.15,24.53-19.52,27.42-19.5.01.47.45,2.22.54,2.3-13.7,9.63-26.78,20.18-39.84,30.64Z"/>
          <path class="cls-47" d="M160.35,668.94c-.39-.47-3.08-2.67-3.62-3.03,10.41-7.09,21.25-14.2,31.23-21.84l1.81,1.52c-10,7.43-19.91,15.3-29.42,23.36Z"/>
          <path class="cls-39" d="M224.13,628.82c-1.56-.28-3.21-2.55-6.94-2.74-2.89-.02-23.18,16.35-27.42,19.5l-1.81-1.52c9.5-7.28,18.32-15.68,28.15-22.58,1.89-.2,7.63,5.12,8.01,7.33Z"/>
        </g>
        <g>
          <path class="cls-7" d="M398.75,728.98c-24.58-35.3-10.33-89.62,29.33-100.39,2.4-.65,19.97-2.58,21.21-2.54,2.27.08,5.04.49,7.43.68.12,0-.78,1.23,1.81,1.52-6.33,5.98,19.64,2.23,38.34,18.89,22.08,19.67,10,46.82,22.7,39.03.08,1.55.78,1.2.78,1.27,1.39,66.27-83.26,96.6-121.6,41.53Z"/>
          <path class="cls-52" d="M458.54,628.25c7.04.77,14.15,2.27,21.26,1.81,16.21,7.55,30.52,20.81,36.51,37.98.78,2.25,3.11,15.05,3.27,18.13-12.7,7.8-.61-19.35-22.7-39.03-18.7-16.66-44.67-12.91-38.34-18.89Z"/>
        </g>
        <path class="cls-46" d="M479.8,630.06c-7.11.46-14.22-1.04-21.26-1.81-2.58-.28-1.69-1.51-1.81-1.52,2.31-8.06,1.88-28.38,3.47-32.79,3.67,3.1-1.84,14.21.95,16.5,1.53,1.25,15.32-.01,20.5,2.71-1.22,5.6-.58,11.33-1.86,16.91Z"/>
        <g>
          <path class="cls-46" d="M449.3,626.05c-1.24-.04-18.81,1.89-21.21,2.54-2.45-11.03-6.46-22.69-2.81-33.75-16.96-19.16-6.75-20.13-6.45-27.57.06-1.57-9.5-24.79-6.86-30.38,7.29.18,13.45-3.1,20.16-4.96.14-.04.82,2.1,2.32,1.64,19.07,26.86-.06,20.5-.86,26.37-.24,1.75,14.31,14.85,14.51,16.47.4,3.21-3.1,8.22-3.35,9.51-7.81-7.55-35.14,14.97-1.22,5.13.61,1.76,9.58.56,5.76,34.99Z"/>
          <path class="cls-46" d="M443.53,591.06c-33.91,9.84-6.59-12.68,1.22-5.13-.46,2.43-2.43,1.65-1.22,5.13Z"/>
        </g>
        <path class="cls-46" d="M579.21,595.17c-7.21-10.41-10.75-10.03-12.05-24.56-15.97,2.73-16.74-16.32-24.85-25.44-3.42-3.85-4.32-3.31-10.8-4.74-4.38-5.06-7.89-17.13-7.38-19.11.56-2.18,7-4.7,5.79-8.38-2.21-2.34-7.59,6.36-7.85,7.89-5.23-3.01-19.4-17.21-21.28-15.37,1.49,17.98-10.41,19.66-10.75,22.38-.18,1.41,5.52,4.84,5.4,13.76-1.22,3.32-12.43,11.31-12.78,12.68-.59,2.35,2.16,4.01,3.01,5.6,1.54,2.89,5.88,6.82,6.26,10.17-20.56,18.26-12.88,15.43-10.27,20.33,8.39,15.73,1.32,16.67,0,22.78-5.18-2.73-18.97-1.46-20.5-2.71-2.79-2.29,2.72-13.4-.95-16.5,3.4-9.43,11.33-.78-.41-25.59,24.28-18.75,5.66-24.31,6.31-31.03.73-7.61,19.84-7.96,3.15-26.91,1.9-1.59,6.16-7.74,7.58-9.04.39-.36,3.79-2.26,8.11-6.74,1.88-1.95,1.59-3.5,4.84-2.1,6.6,2.14,8.28,6.65,8.77,6.43,3.1-1.38-.74-21.32,16.69-17.72,25.27,5.22,18.26,27.32,19.77,28.57,3.53,2.94,20.54-7.25,19.94,21.02,25.34,1.31,18.37,18.15,21.21,20.24,11.41.91,15.57,13.52,24.02,19.82l.17,3.84c-4.55,2.71-19.79,17.89-21.14,20.45Z"/>
        <path class="cls-26" d="M476.83,501.37c-1.41,1.3-5.68,7.45-7.58,9.04-9.03,7.55-23.07,14.61-32.5,22.63-1.2-.09-2.46-.41-1.69-2.03.8-1.67,16.45-7.98,19.11-30.15,3.73-2.11,14.93.07,15.74-.05.62-.09,10.32-7.7,6.92.56Z"/>
        <path class="cls-4" d="M268.02,112.17c-.23-2.53-3.74-12.36-5.03-15.3q34.14-13.56,68.28-27.12c.4,3.4,3.95,16.04,5.33,18.62q-34.29,11.9-68.57,23.8Z"/>
        <path class="cls-16" d="M669.86,118.95c-1.94-.23-4.55-2.07-5.67-3.52-.95-1.23-1.42-4.26-1.86-5.87.18-.07,0-2.49,2.79-2.59.11.62,4.03,9.01,6.01,11.19-.19,1.29-1.22.73-1.27.78Z"/>
        <g>
          <path class="cls-5" d="M414.1,131.78c-.43.12-7.17-.72-8.97-1.05-3.56.9-11.35,13.22-13.37,17.42-.9-8.96,8.48-21.02-4.3-18.38-1-6.5-6.72-5.9-12.12-8.31l2.03-1.69c-2.09-.72-4.66-.78-6.67-1.59-15.51-9.71-45.35-36.53-33.74-54.13-2.9-10.47.96-25.74,8.56-35.92,9.28-12.44,31.39-19.62,46.19-23.16,6.11,1.69,20.5,6.28,23.07,3.33,2.94,1.45,19.19,10.28,20.33,10.27.82,0-1.04-1.5,2.52-3.74,8.2,6.29,18.64,19.57,22.33,29.18.37.98,3.62,11.12,3.71,11.73,5.55,34.61-16.23,66.73-49.57,76.04Z"/>
          <path class="cls-12" d="M370.7,118.19c-12.41-4.96-27.84-18.02-34.11-29.82-1.37-2.58-4.93-15.22-5.33-18.62-2.82-24.11,4.66-31.64,15.3-50.58,2.89-.71,5-4.1,6.84-5.96,27.34-17.18,57.89-18.57,84.21,1.62-3.55,2.24-1.7,3.73-2.52,3.74-1.14.01-17.39-8.82-20.33-10.27-2.57,2.95-16.95-1.63-23.07-3.33-14.8,3.54-36.91,10.72-46.19,23.16-7.59,10.18-11.46,25.45-8.56,35.92-11.61,17.6,18.23,44.42,33.74,54.13Z"/>
          <g>
            <path class="cls-52" d="M522.71,49.19c-.28.53-1.65,2.71-1.76,2.83-1.96,2.27-9.65,5.76-12.73,5.64-15.88-.62-9.33-13.3-44.55-1.93-.1-.61-3.34-10.75-3.71-11.73q13.7.55,27.39,1.1c2.92-1.01.55-2.16,1.74-5.01,4.13-2.13,8.78,13.85,20.36,12.44,11.91-1.45,16.11-23.15-3.39-29.01,15.87-.7,24.29,11.49,16.66,25.66Z"/>
            <g>
              <path class="cls-46" d="M489.08,40.09c1.58-3.81,3.22-15.97,16.96-16.57,19.51,5.86,15.31,27.56,3.39,29.01-11.57,1.41-16.23-14.57-20.36-12.44Z"/>
              <path class="cls-13" d="M513.59,46.47q-3.84.17-7.67.34c-.53-3.49,5.95-2.64,7.67-.34Z"/>
            </g>
          </g>
        </g>
        <path class="cls-13" d="M591.13,126.22c.23-.24,2.91-3.41,3.03-3.62,12.69,4.3,6.91,6.51-3.03,3.62Z"/>
        <g>
          <path class="cls-38" d="M554.72,96.94c.15-.16,2.92-1.75,3.81-2.35,2.14-1.42,5.81-3.06,8.41-3.42.04.7,3.4,2.94,3.62,3.03-2.29-1.09-3.62-.08-5.62.83-.2.09-3.64,2.21-3.81,2.35-12.21,9.8-8.84,26.19,5.72,30.64-11.4-.36,3.29,1.51,4.15,5.33-18.12-2.03-29.83-21.84-16.27-36.41Z"/>
          <path class="cls-23" d="M566.84,128.03c-14.55-4.45-17.93-20.84-5.72-30.64-21.43,25.23,33.92,16.29,3.81-2.35,2-.91,3.33-1.92,5.62-.83,2.4,1.03,12.02,3.36,13.37,5.35,3.27,4.84-2.19,11.28-2.3,11.93-1.76,10.27.92,21.34-14.79,16.54Z"/>
          <g>
            <path class="cls-16" d="M594.16,122.6c-.12.2-2.8,3.37-3.03,3.62-4.1,4.34-14.33,7.78-20.14,7.13-.86-3.82-15.56-5.69-4.15-5.33,15.7,4.8,13.02-6.27,14.79-16.54.11-.65,5.57-7.09,2.3-11.93-1.35-1.99-10.96-4.32-13.37-5.35-.22-.09-3.58-2.33-3.62-3.03,12.07-1.69,21.57,3.03,27.03,14.03.47.94,2.61,6.76,2.64,7.14.02.33-.24.68-.24,1.03-.05,3.46-.49,6.28-2.2,9.24Z"/>
            <path class="cls-10" d="M592.91,114.17c.62,3.58-6.87,4.67-7.38,3.66-2.77-5.49,6.42-9.26,7.38-3.66Z"/>
          </g>
          <path class="cls-35" d="M561.12,97.38c.17-.14,3.61-2.25,3.81-2.35,30.11,18.64-25.24,27.57-3.81,2.35Z"/>
        </g>
        <path class="cls-41" d="M189.68,523q-15.94-7.05-31.89-14.1c-2.19.48-3.07,5.96-5.25,10.68l-1.56-2.54c.61-1.79,2.87-6.59,4.13-8.24l-1.17-1.91q-11.96-5.56-23.92-11.12c3.12-1.73,17.45-13.27,18.77-15.05q25.58,10.97,51.17,21.95c-.7.9-9.93,19.24-10.27,20.33Z"/>
        <path class="cls-37" d="M152.58,569.48c-.14-.22-3.18-3.86-3.37-4.06,12.21-4.36,36-4.78,39.54-11.19.41,1.97,1.25,3.94,1.86,5.87q-19.01,4.69-38.03,9.38Z"/>
        <path class="cls-29" d="M156.59,584.53c.03-.35.23-.68.24-1.03.05-1.61-.11-1.98-.29-3.32q19.79-3.42,39.59-6.84c.5.79,1.24,2.1,1.56,2.54q-20.55,4.32-41.1,8.65Z"/>
        <g>
          <path class="cls-22" d="M745.17,285.47c-1.59-.62-10.09-2.61-12.32-2.93l7.14-70.97c8.54,1.22,9.51,3.34,10.02,3.47l-4.84,70.43Z"/>
          <path class="cls-30" d="M724.39,281.61c5.04-24.49,5.28-50.21,12.23-74.09.77,1.26,3.56,1.83,3.37,4.06l-7.14,70.97c-1.61-.23-7.64-.93-8.46-.93Z"/>
        </g>
        <path class="cls-22" d="M725.97,193.04q-22.12,1.78-44.23,3.56c.37-3.36-1.31-18.36-2.3-22.24q24.68-1.17,49.36-2.34c.21,3.31-3.04,19.97-2.84,21.02Z"/>
        <g>
          <g>
            <path class="cls-12" d="M669.08,691.41c-22.75-41.67-14.17-13.83-44.21-17.04-11.31-1.21-26.47-7.74-34.72-15.86-.61-.6-9.16-13.23-9.63-14.22-6.44-13.64-8.41-35.65-1.32-49.12,1.35-2.56,16.59-17.74,21.14-20.45l-.17-3.84c16.36-8.45,35.57-13.16,52.93-3.66.87.48,5.8,6.63,7.77,8.36-1.62,5.17-9.85-6.44-29.25-6.97-13.16-.36-36.1,10.89-43.65,21.6-10.81,15.33-8.94,29.22-5.62,46.38,9.47,20.3,30.04,35.85,53.47,32.8,4.92-.64,24.5-13.57,27.44-17.32,1.09,7.96-8.61,12.8-8.68,13.66-.12,1.47,10.06,15.74,14.49,25.68Z"/>
            <g>
              <path class="cls-20" d="M682.09,618.59c-2.82-.13-1.29-10.03-1.17-13.29.92,2.08-.04,5.03,3.64,5.21,68.12-1.98,57.91-6.69-4.25-14.03l-1.91,1.17c1.3,1.56,1.61,3.44,1.98,5.35-8.74-4.58-3.1,10.86-5.01,21.04-.84,4.49-9.33,24.5-12.1,28.03-2.95,3.76-22.52,16.68-27.44,17.32-23.43,3.05-43.99-12.5-53.47-32.8-3.32-17.16-5.19-31.05,5.62-46.38,7.55-10.71,30.49-21.96,43.65-21.6,19.4.53,27.64,12.14,29.25,6.97,5.27,4.63,8.23,8.71,14.22,13.15.14.11-.98,1.51.81,3.45,5.8.73,47.62,7.73,49.07,5.72q-12.79-16.88-25.58-33.75c.2-.25.05-.77.24-1.03.98-.55,3.59-2.81,4.06-3.37q13.65,18.98,27.29,37.95c53.92-28.54,33.53,58.38-1.37,14.86l-47.07,1.8c-2.11,1.57-.23,3.45-.46,4.23Z"/>
              <path class="cls-45" d="M680.92,605.3c-.21-.47-.41-1.66-.54-2.3-.37-1.91-.68-3.79-1.98-5.35l1.91-1.17c62.16,7.34,72.37,12.05,4.25,14.03-3.68-.18-2.72-3.12-3.64-5.21Z"/>
              <path class="cls-50" d="M758.11,609.04c-1.69,14.2-26.11,12.05-25.37-2.79.59-11.84,27.59-15.96,25.37,2.79Z"/>
            </g>
          </g>
          <g>
            <path class="cls-52" d="M699.28,760.43c-10.52-.02-14.74-2.59-23.12-7.68-10.76-16.75-14.09-28.44,1.69-43.52-3.05-5.97-6.04-11.67-8.77-17.82-4.42-9.95-14.6-24.21-14.49-25.68.07-.86,9.77-5.7,8.68-13.66,2.76-3.53,11.26-23.54,12.1-28.03,1.91-10.18-3.73-25.62,5.01-21.04.12.63.33,1.83.54,2.3-.12,3.27-1.65,13.17,1.17,13.29-5.93,19.5-5.33,26.72-21.39,44.25q11.43,21.43,22.87,42.87c41.15-8.44,55.16,40.99,15.71,54.72Z"/>
            <path class="cls-39" d="M703.04,753.73c-3.39-4.5-13.67.08-22.34-6.4-1.01-1.74-5.13-8.04-5.35-9.41-.05-.29,1.35-.44,1.34-5.64,3.56,2.28,13.09,9.35,16.98,8.38,3.55,9.49,6.8-.56,12.85,5.23l3.05-1.44c5.03,1.56-1.7,7.37-6.55,9.29Z"/>
            <path class="cls-47" d="M680.71,747.33c8.67,6.49,18.95,1.9,22.34,6.4-8.63,3.4-16.06,1.04-23.58-3.45-1.33-1.61,1.56-2.41,1.25-2.96Z"/>
            <g>
              <path class="cls-13" d="M709.59,744.45l-3.05,1.44c-6.05-5.79-9.31,4.26-12.85-5.23-3.9.96-13.42-6.11-16.98-8.38,0-.91-4.27-7.83,4.82-15.66,1.57-1.35,2.33,1.2,2.44,1.12.44-.28,2.91-5.2,8.9-5.47,11.35-.51,21.73,8,24.14,19.31-4.29,4.45-2.04,9.06-7.41,12.88Z"/>
              <path class="cls-41" d="M704.15,726.34c-.83,16.28-20.12,7.19-21.46,3.57-3.99-10.82,22.33-20.55,21.46-3.57Z"/>
            </g>
          </g>
        </g>
        <g>
          <path class="cls-30" d="M167.72,205.41c-5.21-4.35-3.16-3.9-3.37-4.06q12.22-17.15,24.44-34.31c2.15-.86,1.55-3.11,4.35-.05.22.15,2.52.86,4.89,2.25l-30.31,36.16Z"/>
          <path class="cls-39" d="M188.79,167.05q-12.22,17.15-24.44,34.31c-2.15-1.65-3.61.29-3.84.17-.83-.43.07-2.13-.02-2.17q12.98-18.06,25.96-36.12c.12.17,1.52.27,2.57.61l-.22,3.2Z"/>
        </g>
        <path class="cls-29" d="M131.36,180.48l-2.3.54c-3.33-9.8-8.15-22.31-13.14-31.33.15-.02-.06-1.67,1-1.93.78-.19,3.02,1.08,3.59.86,2.85,8.32,7.71,24.97,10.85,31.87Z"/>
        <g>
          <path class="cls-16" d="M133.41,135.42c-1.67,4.24-8.77,11.56-12.9,13.2-.57.22-2.81-1.05-3.59-.86-1.06.26-.85,1.91-1,1.93-10.69,1.46-19.1-2.22-27.22-8.65-1.22-3.63-3.8-6-3.91-6.35-3.85-12.07,1.83-25.19,13.74-30.35,3.04-1.32,7.49-1.24,7.92-1.37,1.98-.59,3.45-.31,5.62-.83,3.53.56,6.84,1.92,10.02,3.47,4.6,2.25,10.58,6.7,12.41,11.63,2.11,5.69,1.14,12.54-1.08,18.18Z"/>
          <path class="cls-35" d="M117.58,138.15c-.86,2.35,2.23,5.97-.17,7.55-2.3,1.52-22.22-1.89-25.12-15.2-5.54-25.44,35.23-29.53,33.85-5.5-.54,9.33-7.67,10.71-8.55,13.15Z"/>
          <path class="cls-10" d="M117.58,138.15c.89-2.44,8.02-3.81,8.55-13.15,9.72,2.48-1.4,16.46-8.55,13.15Z"/>
        </g>
        <path class="cls-48" d="M137.87,558.38c-1.31-.37-2.77-.81-4.11-.98-4.43-17.6-8.96-37.21-16.71-52.79.32-.93,3.38-2.7.98-4.11.61-.12,1.7-.38,2.3-.54q7.59,26.21,15.17,52.42c2.6,1.33,14.07-31.28,15.47-35.36l1.56,2.54c-5.74,12.4-10.15,25.9-14.67,38.81Z"/>
        <g>
          <g>
            <path class="cls-16" d="M160.83,689.66c-17.98,28.24-52.53-.28-40.17-22.58.92-1.66,3.41-1.55,5.08-3.13-6.6,17.95,15.71,25.6,22.31,15.62,3.03-4.58,3.29-10.57,4.82-15.66.65.29,3.61,1.84,3.86,2,.54.36,3.22,2.56,3.62,3.03.26.3,2.67,5.2,2.88,6.11-4.88-4.06-8,8.21.83,5.62-.17,2.57-1.36,6.99-3.23,8.99Z"/>
            <path class="cls-48" d="M120.66,667.08l-12.17-12.66c.8-.82,4.14-4.14,4.3-4.4q6.6,6.45,13.2,12.9l-.24,1.03c-1.67,1.58-4.16,1.47-5.08,3.13Z"/>
            <path class="cls-35" d="M125.74,663.95l.24-1.03c2.71.82,10.59-6.32,26.88.98-1.53,5.1-1.79,11.09-4.82,15.66-6.6,9.98-28.91,2.33-22.31-15.62Z"/>
            <path class="cls-38" d="M163.23,675.05c.31,1.35.89,4.71.83,5.62-8.83,2.59-5.71-9.68-.83-5.62Z"/>
          </g>
          <g>
            <path class="cls-52" d="M112.79,650.02c-.16.26-3.51,3.58-4.3,4.4-24.23,25.08-64.64,5.57-67.1-27.91.5-9.51,1.52-13.46,6.16-21.31,6.08-10.29,22.54-19.17,34.6-17.79,5.3.6,17.93,6.33,22.63,9.73.17.12,1.4,1.16,1.81,1.52.45.39,7.23,8.86,7.53,9.38,7.59,13.49,6.79,28.86-1.32,41.98Z"/>
            <g>
              <path class="cls-46" d="M100.72,623.28c-1.41,2.99-1.14,2.72-3.76,6.7,1.45-1.36-.98-9.8-1.39-10.09-3.56-2.53-1.69,3.26-6.82,8.14,9.13-25.83-23.38-18.11-17.81-2.62,1.82,5.06,6.27,7.47,11.46,6.53,4.18,17.56-6.26,5.9-11.12,12.54-1.73.39-1.61-8.1-9.29-6.55-1.34-5.06-1.35-10.54-4.42-6.48-.13-1.75-1.56,1.79.68-7.43.14-.58,5.45-4.26,1.42-10.51.39-2.11,2.38-7.26-1.86-5.87.89-3.13-1.33-6.14,2.86-7.45l-1.93-1c3.3-2.27,3.4-1.23,3.57-1.32-1.8,1.15,9.41,5.62,10.04,5.65,1.6.07,10.76-6.2,18.96,2.35,5.84,6.08-2.44,10.71,8.82,10.78,3.27.02,2.8-2.62,4.47-.56-.06,2.9-2.91,5.14-3.89,7.21Z"/>
              <path class="cls-47" d="M67.05,655.39c3.3,3.26,21.54-4.97,24.61-7.7,4.05-3.6,16.52-23.55,9.07-24.41.97-2.07,3.82-4.31,3.89-7.21-1.67-2.06-1.2.58-4.47.56,4.1-7.85-6.56-9.56,3.72-11.05,23.38,23.12-1.81,64.08-32.92,53.98-.04-2.24-2.4-3.26-3.89-4.18Z"/>
              <path class="cls-39" d="M67.05,655.39c-11.91-7.38-18.13-10.36-19.99-25.37,10.69-.26,6.2-7.97,6.43-8.77,1.31-4.64,3.01-8.99,4.33-13.61,4.24-1.39,2.25,3.75,1.86,5.87-.17.9-4.17,4.04-1.42,10.51-2.24,9.22-.81,5.68-.68,7.43.56,7.75,4.15,14.68,8.58,11.8,10.77,14.54,23.67-2.45,30.82-13.27,2.63-3.98,2.36-3.7,3.76-6.7,7.45.87-5.02,20.81-9.07,24.41-3.07,2.73-21.31,10.96-24.61,7.7Z"/>
              <path class="cls-39" d="M100.14,616.64c-11.26-.07-2.98-4.7-8.82-10.78-8.2-8.54-17.36-2.27-18.96-2.35-.64-.03-11.84-4.49-10.04-5.65,4.6-2.33,10.74-3.88,15.81-4.91l14.37,3.42c2.76,4.24,5.7,3.61,11.36,9.21-10.27,1.48.39,3.19-3.72,11.05Z"/>
              <path class="cls-32" d="M57.81,607.64c-1.32,4.62-3.02,8.97-4.33,13.61-.23.8,4.27,8.51-6.43,8.77-1.52-12.33.24-22.97,11.68-30.84l1.93,1c-4.19,1.31-1.97,4.33-2.86,7.45Z"/>
              <path class="cls-13" d="M96.96,629.98c-7.14,10.82-20.05,27.81-30.82,13.27-4.42,2.87-8.02-4.05-8.58-11.8,3.07-4.07,3.09,1.42,4.42,6.48,7.67-1.55,7.56,6.94,9.29,6.55,4.86-6.63,15.3,5.02,11.12-12.54.37-.07,6.08-3.65,6.35-3.91,5.13-4.88,3.26-10.67,6.82-8.14.42.3,2.84,8.73,1.39,10.09Z"/>
              <path class="cls-6" d="M88.75,628.02c-.27.26-5.99,3.84-6.35,3.91-5.19.94-9.64-1.47-11.46-6.53-5.56-15.5,26.95-23.21,17.81,2.62Z"/>
              <path class="cls-13" d="M58.25,624.01c-2.75-6.47,1.25-9.61,1.42-10.51,4.04,6.25-1.28,9.93-1.42,10.51Z"/>
            </g>
          </g>
        </g>
        <g>
          <path class="cls-44" d="M114.12,608.04c-.3-.53-7.07-8.99-7.53-9.38l.49-2.05c9.04,9.76-1.6-9.59,5.33-4.15.52,2,1.57,1.17,1.81,1.52,8.05,11.8,34.25,5.4,21.26,1.81,4.41-3.66,4.76-7.95,8.55-13.15,5.87-3.41,9.07,2.09,12.81.88-.01.34-.21.68-.24,1.03-1.95,22.7-22.54,32.63-42.47,23.51Z"/>
          <path class="cls-28" d="M106.59,598.65c-.41-.35-1.64-1.39-1.81-1.52-4.77-10.67-1.59-17.48-.54-25.07l.83,5.62c-1.48,5.86-2.49,14.07,2,18.91l-.49,2.05Z"/>
          <path class="cls-35" d="M144.03,582.62c-3.8,5.19-4.14,9.49-8.55,13.15-.9-.25-10.73-.34-11.27-.51-.71-.22-5.66-11.38-9.99-1.3-.24-.35-1.29.49-1.81-1.52-1.43-5.53-.83-6.92.88-12.81.29-1,3.64-1.75,3.35-9.51,15.61-13.6,37.37,4.46,33.63,9.09-.74.91-2.34-1.92-6.23,3.4Z"/>
          <path class="cls-23" d="M156.84,583.5c-3.73,1.21-6.94-4.29-12.81-.88,3.89-5.32,5.49-2.48,6.23-3.4,3.75-4.63-18.02-22.7-33.63-9.09.29,7.76-3.06,8.51-3.35,9.51-8.52.93,1.81-10.06-7.72-4.01,3.97-11.91,15.74-19.83,28.2-18.23,1.34.17,2.8.6,4.11.98,6.15,1.76,7.06,2.7,11.34,7.04.19.19,3.23,3.84,3.37,4.06,2.02,3.09,3.45,6.98,3.96,10.7.18,1.34.34,1.72.29,3.32Z"/>
          <path class="cls-16" d="M107.08,596.6c-4.49-4.84-3.48-13.05-2-18.91.17-.68.27-1.39.49-2.05,9.53-6.05-.8,4.94,7.72,4.01-1.71,5.88-2.31,7.27-.88,12.81-6.93-5.43,3.72,13.91-5.33,4.15Z"/>
          <path class="cls-23" d="M114.22,593.96c4.34-10.08,9.28,1.07,9.99,1.3.54.17,10.37.27,11.27.51,12.99,3.59-13.21,9.99-21.26-1.81Z"/>
        </g>
        <path class="cls-26" d="M515.24,481.24c-17.43-3.6-13.59,16.34-16.69,17.72-.5.22-2.17-4.29-8.77-6.43,1.44-1.59,4.62-8.42,5.52-9.53,8.73-10.77,14.23-18.55,20.38-30.94,4.71,8.14,7.31,19.37,14.37,26.2-4.75,1.19-13.44-.84-14.81,2.98Z"/>
        <path class="cls-26" d="M589.78,464.29c9.01-20.13,2.56-42.5-17.98-52,.18-.38,1.35-6.07,1.96-8.21,7.71,1.17,22.96,23.57,24.51,29.16,2.47,8.91.35,32.76-8.48,31.06Z"/>
        <g>
          <path class="cls-46" d="M677.17,361.46c-7.11,1.87-21.4,7.18-27.81,7.48q-2.54-9.82-5.08-19.65c9.75-3.07,19.22-7.29,29.33-9.28.01,4.06,2.22,18,3.57,21.46Z"/>
          <path class="cls-46" d="M620.53,376.17l-4.79-16.32c.93-.34,8.76-5.88,17.82-8.77,4-1.28,7.8-.09,8.19-.22,1.44,3.17,6,15.78,5.57,17.6-2.72,11.44-24.2,6.97-26.78,7.72Z"/>
          <g>
            <path class="cls-46" d="M615.2,380.32c-10.11,6.04-.2,8.6-31.67,5.47-.15-1.38-1.45-10.71-1.66-11.24,13.04-13.45,20.5-11.19,25.95-13.34,4.93,2.41,6.7,13.63,7.38,19.11Z"/>
            <path class="cls-47" d="M615.2,380.32c-.68-5.48-2.45-16.7-7.38-19.11,5.56-2.19,7.54-1.23,7.92-1.37l4.79,16.32c-.32.09-2.01,2.17-5.33,4.15Z"/>
          </g>
          <path class="cls-52" d="M649.36,368.94c-.56.03-1.37-.41-2.05-.49.43-1.81-4.13-14.43-5.57-17.6,2.06-.66,2.4-1.52,2.54-1.56q2.54,9.82,5.08,19.65Z"/>
        </g>
        <path class="cls-47" d="M74.8,317.77c0-.17-.25-3.16-.29-3.32,11.72-4.62,90.35-16.97,94.21-19.86,9.24-6.92-7.02-20.44-9.01-28.18.17-.08-.58-.41,2.79-2.59,1.68,2.99,13.38,19.36,13.54,20.58.08.6-3.12,9.82-2.81,11.8.53,3.44,19.89,17.38,21.53-8.43,9.69,12.22-9.06,30.64-25.73,10.14q-47.1,9.93-94.21,19.86Z"/>
        <path class="cls-39" d="M67.22,304.03c-.23-.19-2.21-1.4-2.83-1.76q25.44-24.85,50.88-49.7c.69.98,1.47,2.43,1.56,2.54q-24.81,24.46-49.61,48.92Z"/>
        <path class="cls-46" d="M319.65,428.15c-11.27,8.12-13.58,9.07-26.83,3.37-6.2-.9-28.19,12.21-32.92-2.96q1.42-4.81,2.84-9.63,14.1,2.27,28.2,4.55c-7.36-10.63,5.6.67.37-12.93,1.03-.11,10.41-5.95,19.89-6.11,4.08,4.14,7.04,20.54,8.45,23.7Z"/>
        <path class="cls-41" d="M217.94,440.8c-2.12.2-5.51,2.82-17.15-.83-.23-.07.27-.81-3.62-3.03-.78-4.6,1.41-8.28,1.42-10.51.05-12.39-4.83-3.42-8.92-8.09.28-2.15,31.24,2.46,34.99,5.62,9.67-1.82,24.25-.08,34.82,1.79-1.68,11.56-12.18,8.08-18.79,12.88-11.65-3.21-13.4-6.67-22.75,2.17Z"/>
        <path class="cls-13" d="M217.94,440.8c9.35-8.85,11.1-5.39,22.75-2.17,6.61-4.8,17.11-1.32,18.79-12.88,2.96-20.33-31.98-4.61-34.09-4.87-6.17-.74-7.32-7.15-5.47-8.9,1.1-1.04,12.21.35,15.62.47,8.31.28,14.15,1,22.04,3.08,1.04.27,1.2,2.04,2.32,1.64,13.55-20.38,25.42-6,31.4-6.62,5.23,13.6-7.72,2.3-.37,12.93q-14.1-2.27-28.2-4.55-1.42,4.81-2.84,9.63c4.73,15.17,26.72,2.06,32.92,2.96-15.08,13.56-29.64,3.04-32.72,3.05-14.31,10.61-23.34,2.84-28.89,2.88-.97,0-7.49,2.8-13.27,3.35Z"/>
        <path class="cls-39" d="M481.66,590.37c-2.62-4.91-10.29-2.07,10.27-20.33.93,8.27-6.52,13.64-10.27,20.33Z"/>
        <path class="cls-37" d="M485.67,559.88c-.85-1.59-3.6-3.25-3.01-5.6.35-1.37,11.56-9.36,12.78-12.68-.12,9.47-5.24,10.7-9.78,18.28Z"/>
        <path class="cls-12" d="M542.31,545.17c-14.62-1.01-10.31-4.18-10.8-4.74,6.49,1.43,7.38.89,10.8,4.74Z"/>
        <path class="cls-48" d="M524.13,521.32c-.65-.23-1.58-.22-2.05-.49.25-1.53,5.63-10.23,7.85-7.89,1.21,3.68-5.23,6.2-5.79,8.38Z"/>
        <path class="cls-46" d="M583.54,249.14q-25.95,24.73-51.91,49.46c-4.45-5.96-10.69-10.83-14.27-17.5.97-.92,5.68-7.08,10.36-11.63,13.48-13.12,27.45-25.8,40.76-39.1,5.03,7.68,14.83,14.39,15.05,18.77Z"/>
        <g>
          <path class="cls-52" d="M654.76,141.38c-.74,1.3-3.01-.23-3.28,4.64-1.18-.76-3.42,1.04-5.89-.32-3.18-6.75-23.94-11.84-31.87-11.93-7.48-.09-24.9,7.08-33.16,9.45l-1.93-1c8.41-7.68,17.86-8.64,20.46-13.02,9.14-2.33,22.37-2.25,31.48-.1.26.06-.96.69,4.89,2.25,1.93.51,4.62,1.93,8.99,3.23.25.07,3.51,2.47,4.13,3.15l3.96-.68c5.63-6.3,11.76-11.71,17.33-18.11.05-.06,1.08.51,1.27-.78.45.5,1.18,1.19,1.81,1.52-2.93,2.93-17.82,17.82-18.6,18.89-1.47,2.02.49,2.69.42,2.81Z"/>
          <path class="cls-40" d="M675.33,218.94c-3.15-1.09-7.92,13.01-12.49,16.01-3.25,2.13-5.52-.16-6.01.19-16.47,12.02-34.32,26.38-65.4,10.45-12.08-6.19-30.82-33.26-31.62-47.12-1.15-20,5.86-40.6,20.75-55.25,8.26-2.37,25.69-9.54,33.16-9.45,7.93.09,28.69,5.18,31.87,11.93,2.47,1.36,4.71-.44,5.89.32,12.39,7.95,16.55,21.88,26.63,24.78.44,1.27,1.27,3.38,1.32,3.57.98,3.87,2.66,18.87,2.3,22.24-.66,6.07-3.87,16.52-6.4,22.34Z"/>
          <path class="cls-52" d="M651.49,146.02c.26-4.87,2.54-3.34,3.28-4.64,2.72,3.07,7.71,5.52,10.07,7.82,3.2,3.12,2.73,1.63,2.83,1.76.73.85,9.72,17.72,10.46,19.84-10.08-2.9-14.25-16.83-26.63-24.78Z"/>
          <path class="cls-12" d="M583.54,249.14c-.22-4.38-10.02-11.09-15.05-18.77-27.35-41.76-8.46-91.21,30.6-101.17-2.6,4.38-12.05,5.34-20.46,13.02l1.93,1c-14.9,14.65-21.9,35.25-20.75,55.25.79,13.86,19.53,40.92,31.62,47.12,31.07,15.93,48.92,1.57,65.4-10.45.49-.36,2.76,1.94,6.01-.19,4.56-2.99,9.34-17.09,12.49-16.01-15.28,35.09-58.58,47.97-91.79,30.2Z"/>
        </g>
        <g>
          <path class="cls-46" d="M408.37,237.79c-18.9-40.21.83-32.84.96-40.44.04-2.08-12.31-12.34-13.49-16.23,17.77-20.04-2.8-20.19-4.08-32.97,2.01-4.2,9.81-16.52,13.37-17.42,1.8.33,8.53,1.17,8.97,1.05,1.28,7.65,4.23,14.87,6.65,22.19-1.21,3.22-4.34,9.5-4.08,12.58.08.98,1.9.86,1.93,1,.86,3.99,3.59,7.76,4.74,11.97-.84,8.33-5.68,9.85-2.89,16.67,1.09,2.67,5.23,4.98,6.38,9.65.95,3.88-.73,23.47.22,30.96-6.23.77-12.42.37-18.67.98Z"/>
          <path class="cls-18" d="M420.45,196.19c-2.8-6.82,2.05-8.34,2.89-16.67.24.9,6.27,3.97-2.89,16.67Z"/>
          <path class="cls-52" d="M418.6,167.55c-.03-.14-1.85-.02-1.93-1-.26-3.09,2.87-9.36,4.08-12.58.63,1.93,7.13.56-2.15,13.59Z"/>
        </g>
        <g>
          <path class="cls-46" d="M372.6,242.28c-3.59.69-24.08,5.38-25.27,5.91-5.36-28.64,10.88-27.84,11.27-33.65.07-1.02-7.75-12.47-7.99-16.54,1.75-1.51,10-10.4,10.24-11.12,1.15-3.37-1.2-3.87-1.2-4.08.04-6.63-1.64-11.45-1.71-15.59,11.99-13.32,7.35-11.84,7.77-14.42.72-4.42,4.92-31.89,4.74-33.58,1.98.19,3.14,1.47,4.89,2.25,5.4,2.41,11.12,1.8,12.12,8.31.76,4.99-4.69,23.12-4.96,25.39-.06.47,1.62,2.07,1.56,2.54-3.43,28.18-10.17,56.08-11.47,84.58Z"/>
          <path class="cls-12" d="M375.35,121.46c-1.74-.78-2.91-2.06-4.89-2.25-.04-.36.34-.78.24-1.03,2.01.8,4.58.86,6.67,1.59l-2.03,1.69Z"/>
          <path class="cls-52" d="M350.61,198c-.43-7.27,5.14-9.46,9.04-15.2,0,.21,2.35.71,1.2,4.08-.24.72-8.49,9.61-10.24,11.12Z"/>
          <path class="cls-30" d="M357.94,167.21c-.04-2.12-4.02-3.82,7.77-14.42-.42,2.58,4.22,1.1-7.77,14.42Z"/>
        </g>
        <path class="cls-46" d="M339.7,252.88c-1.76,1.37-14.37,15.97-15.64,20.14-.63-.33-1.35-1.01-1.81-1.52-2.2-2.42-6.31-8.7-8.06-11.68-3.16-5.38-8.95-9.22-5.55-15.42-7.26-6.23-20.26,7.99-18.03-22.19-25.39-9.31-18.17-24.42-19.35-25.76-3.06-3.46-12.83,6.19-23.02-21.75-1-.61-20.05-3.14-21.53-2.96l.49-2.05c11.92-1.86,20.31-12.66,27.79-21.04,1.58-1.77,3.33-.67,3.45-.81,2.01,3,6.73,3.88,9.53,5.52-2.72,3.75-.13,4.01,1.61,6.89,2.55,4.22,5.96,8.12,9.09,11.93,7.98,10.11-3.68,6.74,5.23,9.92,5.35,1.91,6.11,2.71,10.56,5.77q3.42,8.41,6.84,16.81c25.93,5.66,13.89,24.52,17.96,27.05,3.8,2.36,17.58-7.81,20.45,21.14Z"/>
        <path class="cls-52" d="M301.29,204.69q-3.42-8.41-6.84-16.81c6.37,4.39,13.06,7.56,6.84,16.81Z"/>
        <g>
          <path class="cls-52" d="M283.9,182.11c-8.91-3.18,2.76.19-5.23-9.92,6.9-.69,7.69,3.64,5.23,9.92Z"/>
          <path class="cls-52" d="M269.58,160.26c-1.74-2.89-4.33-3.15-1.61-6.89,2.57,1.5,7.95.38,1.61,6.89Z"/>
        </g>
        <path class="cls-28" d="M644.45,134.58q9.87-9.58,19.75-19.16c1.11,1.45,3.73,3.28,5.67,3.52-5.57,6.4-11.7,11.81-17.33,18.11l-3.96.68c-.62-.68-3.88-3.08-4.13-3.15Z"/>
        <g>
          <path class="cls-52" d="M282.79,587.47c1.78-4.31,4.44-5.44,4.67-5.94.59-1.29-1.17-4.38-1.07-4.59.47-1.1,7.26-8.96,8.07-11.09,8.84-23.58,8.5-44.72-9.79-63.61-7.16-7.39-8.76-6.75-11.09-8.07-4.7-2.66-14.4-7.32-19.28-7.85-17.59,1.53-43.21,8.3-53.86,23.5-1.24,1.77-3.65,12.33-7.28,12.36-19.75,53.44,45.38,99.7,89.66,65.28-.13.32-.1.71-.24,1.03-.87,1.97-2.54.21-2,3.86-4.41.91-11.78,5.49-16.03,8.11-4.54-1.63-4.13.05-4.35.05-13.64-.11-16.76,1.3-17.64,1.22-.74-.06-4.29-3.34-14.61-2.4-.25-3.14-8.04-4.24-12.88-7.41-1.43-.94-16.63-15.1-17.32-16.06-.32-.44-1.06-1.75-1.56-2.54-.39-.61-5.14-12.05-5.52-13.25-.61-1.92-1.44-3.89-1.86-5.87-1.85-8.84-1.71-22.65.93-31.23.33-1.09,9.57-19.43,10.27-20.33,1.33-1.72,21.93-15.42,25.15-16.79,19.94-8.47,42.44-6.67,59.46,7.65.86.73,13.73,16.51,14.27,17.5.51.93,5.79,18.83,5.99,20.41,2.51,20.7-5.59,43.26-22.02,56.03Z"/>
          <g>
            <path class="cls-46" d="M225.16,629.06c-.35-.06-.68-.18-1.03-.24-.39-2.21-6.12-7.53-8.01-7.33-2.2-8.28,8.1-15.19,11.78-22.14,10.32-.94,13.88,2.33,14.61,2.4-.07.52,1.3,2.27,1.56,2.54-2.96,5.92-2.49,15.48-7.06,20.55-.48.53-9.12,5.12-11.85,4.23Z"/>
            <path class="cls-13" d="M225.16,629.06c2.74.89,11.37-3.69,11.85-4.23,4.57-5.07,4.11-14.63,7.06-20.55,1.33,1.36,3.43,2.62,4.4,4.3-3.14,21.87-3.09,23.87-23.32,20.48Z"/>
            <path class="cls-52" d="M217.73,628.38c-.09-.08-.52-1.83-.54-2.3,3.73.19,5.38,2.46,6.94,2.74.35.06.68.19,1.03.24,20.23,3.4,20.17,1.39,23.32-20.48,11.23,19.42-12.68,36.4-30.74,19.79Z"/>
          </g>
          <g>
            <path class="cls-15" d="M282.79,587.47c-44.27,34.42-109.4-11.84-89.66-65.28,3.63-.03,6.04-10.59,7.28-12.36,10.66-15.2,36.27-21.98,53.86-23.5,4.88.53,14.58,5.19,19.28,7.85-6.64,3.88,4.59,13.71,11.09,8.07,18.29,18.89,18.64,40.03,9.79,63.61-.8,2.14-7.59,10-8.07,11.09-.09.22,1.66,3.3,1.07,4.59-.22.49-2.89,1.63-4.67,5.94Z"/>
            <path class="cls-47" d="M273.56,494.17c2.33,1.32,3.94.67,11.09,8.07-6.51,5.64-17.74-4.19-11.09-8.07Z"/>
            <path class="cls-37" d="M208.47,567.06c-2.9,6.45-5.33-.71-5.77-.83-.31-.08-1.77,2.8-2.79,2.59-.92-.19-7.64-16.6-7.23-17.45.38-.79,5.28,3.42,7.77-3.03-.38,5.33,9.34,15.77,8.01,18.72Z"/>
          </g>
        </g>
        <g>
          <path class="cls-46" d="M673.27,332.33l-29.18-.44c5.78-6.93.91-8.79,1.86-16.91,8.69-.43,23.02-3.31,33.24-2.93-1.56,3.14-5.8,19.23-5.92,20.28Z"/>
          <path class="cls-13" d="M679.18,312.05c-10.21-.38-24.55,2.5-33.24,2.93-1.76.09-4.9-1.67-6.67-1.59-.38.02-4.92,2.6-7.14,2.64-2.46.05-6.99-6.45-9.97.88-7.14-7.61-3.41-.08-4.35.05-3.48.49-3.68-1.26-1.83-3.69.43-.29,1.95-5.1,7.6-6.87,6.52-.94,21.42,5.4,22.58,5.38,2.25-.03-.61-8.79,33.99-3.83-.56,1.02-.47,2.88-.98,4.11Z"/>
          <path class="cls-46" d="M644.09,331.89c-9.69,11.63-26.73-2.32-30.47-1.84-17.13,18.67-25.15,4.98-32.7,5.23-1.56.05-12.71,9.28-30.13,5.84-.92-4.09-6.77-23.32-7.96-25.76,5.3-.36,21.13-3.28,24.02-2.95,7.61.85,9.43,4.29,10.29,4.62.16.06.18,1.01,2.08,2.66,2-.71,7.31-2.25,8.68-2.27,6.91-.09,14.16-.76,20.99.66,3.36-.66,3.82-2.77,4.57-3.25.84-.54,1.78-1.05,2.54-1.56-1.85,2.44-1.65,4.18,1.83,3.69.94-.13-2.79-7.66,4.35-.05,2.98-7.33,7.52-.83,9.97-.88,2.21-.04,6.76-2.62,7.14-2.64,1.77-.08,4.91,1.68,6.67,1.59-.94,8.12,3.92,9.98-1.86,16.91Z"/>
          <path class="cls-13" d="M587.88,317.42c2.46-1.91-.14-4.81-3.13-5.08,10.03-6.25,18.46-2.32,28.69,2.5-.75.48-1.21,2.59-4.57,3.25-6.83-1.43-14.08-.75-20.99-.66Z"/>
          <path class="cls-13" d="M587.88,317.42c-1.37.02-6.68,1.57-8.68,2.27-1.9-1.65-1.92-2.6-2.08-2.66,2.96.76,4.88-2.98,7.62-4.69,2.99.27,5.59,3.17,3.13,5.08Z"/>
        </g>
        <g>
          <path class="cls-52" d="M766.14,215.63c-5.15.69-11.07.72-16.13-.59-.51-.13-1.48-2.25-10.02-3.47.19-2.22-2.61-2.79-3.37-4.06-1.22-2.01-10.35-12.92-10.65-14.47-.2-1.04,3.04-17.71,2.84-21.02,1.97-1.59,1.67-3.41,2-3.86.11-.15,2.42-2.28,2.79-2.59,32.65-27.85,82.18,25.32,32.55,50.05Z"/>
          <path class="cls-13" d="M757.2,171.2c-13.38.83-18.35,18.53-1.81,21.26-6.91,9.7,7.24,13.9-5.72,14.91-11.41.88-29.14-24.78-11.31-39.03,2-1.59,13.6-5.25,16.45-5.3l7.45,2.86-3.96.68q4.13,3.15,8.26,6.31c-3.61-1.37-5.27-1.94-9.36-1.69Z"/>
          <path class="cls-39" d="M749.67,207.37c12.96-1-1.19-5.21,5.72-14.91,1.55.26,3.07.81,4.62,1.1,5.72-.99,9.29-22.69-2.81-22.36,4.09-.25,5.75.32,9.36,1.69q-4.13-3.15-8.26-6.31l3.96-.68-7.45-2.86c8.86-.15,22.8,7.31,25.39,16.35,2.01,7.02-.57,16.73-6.4,22.34-5.19,4.99-19.74,12.69-24.12,5.64Z"/>
          <path class="cls-41" d="M755.39,192.46c-16.54-2.73-11.56-20.43,1.81-21.26,12.09-.33,8.53,21.37,2.81,22.36-1.55-.29-3.07-.84-4.62-1.1Z"/>
        </g>
        <path class="cls-46" d="M176.02,284.39c7.03-3.37,13.65-3.02,18.72,3.37-1.64,25.81-21,11.87-21.53,8.43-.3-1.99,2.89-11.2,2.81-11.8Z"/>
        <path class="cls-52" d="M257.58,415.53c-7.9-2.08-13.73-2.8-22.04-3.08,2.61-3.76,5.4-1.88,8.36-7.77,2.64-1.08,4.91.22,7.43.68-1.49,5.5,10.34,5.26,6.26,10.17Z"/>
        <g>
          <path class="cls-46" d="M259.49,425.75c-10.57-1.87-25.15-3.61-34.82-1.79-3.76-3.17-34.72-7.77-34.99-5.62,4.08,4.67,8.97-4.3,8.92,8.09-1.58-.47-8.76-4.46-9.26-4.38-.38.07-5.17,5.43-5.18,5.82-.14,3.82,9.86.09,9.19,9.24,1.07-1,2.75-.79,3.84-.17,3.89,2.22,3.39,2.96,3.62,3.03-13.29,9.36-24.17,5.81-39.34,5.81,0-.11-1.88-.05-1.93-1-.34-6.85-2.33-21.03-5.54-26.81,31.93-3.73,24.3-12.76,31.06-14.29,4.43-1.01,13.65,3.28,15.64,2.64,1.2-.38,2.64-13.33,20.63-9.19,3.16-3.57,4.27-7.94,9.36-9.7,7.05,11.18,7.6,4.22,8.24,4.13,7.74-1.11,7.7,7.76,5.01,13.12-2.96,5.89-5.74,4.01-8.36,7.77-3.4-.11-14.51-1.51-15.62-.47-1.85,1.75-.7,8.16,5.47,8.9,2.11.25,37.05-15.47,34.09,4.87Z"/>
          <path class="cls-13" d="M197.17,436.93c-1.09-.62-2.76-.83-3.84.17.67-9.15-9.33-5.42-9.19-9.24.01-.39,4.8-5.75,5.18-5.82.5-.09,7.68,3.91,9.26,4.38,0,2.23-2.2,5.91-1.42,10.51Z"/>
          <path class="cls-46" d="M194.41,407.53c.18.5-6.37,3.32-6.74,3.27-8.79-1.08,5.4-7.09,6.74-3.27Z"/>
        </g>
        <g>
          <path class="cls-47" d="M42.88,347.04c-1.45-.7-3.7-1.58-4.89-2.25-2.62-1.48-2.44-2.66-2.59-2.79,3.33-3.16-7.15-7.1-4.03-17.23,2.21,5.37,11.88,14.57,17.57,15.03,1.06,4.11-3.73,4.39-6.06,7.23Z"/>
          <g>
            <path class="cls-13" d="M48.94,339.81c-5.69-.46-15.36-9.67-17.57-15.03-3.12,10.13,7.36,14.07,4.03,17.23-10.51-8.72-14.03-23.64-5.76-34.99.82-1.13,5.64-5.3,6.84-5.96.37-.21,7.5-2.3,8.16-2.39-5.65,11.03,3.67,4.11,6.96,4.91,26.99,6.56,14.76,37.65-2.67,36.24Z"/>
            <path class="cls-6" d="M57.03,319.5c.57,10.19-18.85,9.11-19.89,6.11-3.14-22.58,19.54-12.36,19.89-6.11Z"/>
          </g>
        </g>
        <g>
          <path class="cls-3" d="M299.72,338.8l-2.05-.49c.45-1.34-1.07-1.39-2.83-1.76,7.81-3.64-3.23-4.98.37-12.93-11.01-1.64-11.45-15.57-12.46-15.98-1.48-.6-6.58,4.56-8.43,1.25-4.26-14.63-3.45-28.32,10.19-38.24,13.11-9.54,24.46-3.57,37.76.86.45.5,1.17,1.19,1.81,1.52-2.52,6.13.66,12.31-.05,18.43-1.04,8.95-5.61,25.42-2.74,29.72-6.85,6.17-14.63,11.52-21.56,17.64Z"/>
          <path class="cls-26" d="M274.31,308.89c3.89,13.38,8.72,18.43,19.5,27.42-2.06-.63-6.5.25-15.71-9.17-29.77-30.41-6.17-72.29,36.1-67.32,1.75,2.98,5.87,9.26,8.06,11.68-13.29-4.43-24.64-10.4-37.76-.86-13.65,9.93-14.45,23.62-10.19,38.24Z"/>
          <path class="cls-19" d="M294.83,336.55c-.34-.07-.7-.14-1.03-.24-10.78-8.99-15.6-14.04-19.5-27.42,1.85,3.32,6.95-1.84,8.43-1.25,1.01.41,1.45,14.34,12.46,15.98-3.6,7.95,7.44,9.29-.37,12.93Z"/>
          <path class="cls-3" d="M321.27,321.16c-2.87-4.3,1.7-20.77,2.74-29.72,1.4,4.36,5.11,9.69,6.55,13.49.78,2.06,1.79,3.79,3.01,5.6-4.29,3.35-8.25,6.99-12.29,10.63Z"/>
        </g>
        <g>
          <path class="cls-30" d="M348.14,458.79c-6.56-2.02-11.46-9.5-17.79-11.83l1.39-1.3c-2.82-4.26-10.51-13.97-12.09-17.52-1.41-3.16-4.37-19.56-8.45-23.7l1-1.93c-4.76-1.19-13.65-4.66-17.23-7.36-5.47-4.12-11.38-15.81-12.02-22.39-1.25-12.76,4.42-26.46,14.71-34.46l2.05.49c5.22.49-6.33,10.91-8.14,15.96-5.68,15.79,1.97,35.61,16.74,43.57,3.58,1.93,10.19,4.49,14.12,4.45-4.11,14.73,6.84,25.62,6.33,28.08-.09.44-8.47,6.6-.83,5.77,2.09-.23.51-8.68,10.29,4.62,5.74,7.8,8.31,26.21,11.34,7.04,2.57,2.46,4.31,5.72,6.74,8.11-1.37,3.49-5.12,3.33-8.16,2.39Z"/>
          <path class="cls-11" d="M575.66,391.51c1.15-13.13,1.43-13.32-7.67-22.43-10.7-10.71-23.22-13.33-26.17-17.62-4.2-35.12-27.4-63.03-28.63-66.47-.39-1.09,2.2-1.66,1.88-3.35.46,0,2.21-.46,2.3-.54,3.58,6.67,9.82,11.54,14.27,17.5,2.15,2.88,10.08,14.51,11.19,16.76,1.2,2.44,7.04,21.67,7.96,25.76.51,2.26-3.71,3.6-.95,6.28,5.39,5.12,30.5,23.36,32.04,27.15.21.53,1.51,9.86,1.66,11.24.61,5.7,3.36,6.19-7.87,5.72Z"/>
          <g>
            <path class="cls-49" d="M589.78,464.29c-9.58,21.4-39.5,29.92-57.92,15.49.32-1.22,3.51-.78,3.69-1.83.44-2.59-17.56-20.34-.17-49.39l1.27-.78c12.65,4.47,29.53-3.54,35.14-15.49,20.54,9.5,26.99,31.87,17.98,52Z"/>
            <path class="cls-33" d="M531.86,479.78c-.6-.47-1.27-.99-1.81-1.52-7.06-6.83-9.65-18.06-14.37-26.2,12.44-25.03,4.17-27.11,19.7-23.51-17.39,29.05.61,46.8.17,49.39-.18,1.05-3.37.61-3.69,1.83Z"/>
          </g>
          <path class="cls-14" d="M332.12,398.58c-1.69.3-3.28,1.48-4.84,2.1-2.15.86-4.58,2.1-4.84,2.1-3.94.04-10.54-2.52-14.12-4.45,3.56-4.4,8.52-.35,13.29-1.17,6.58-1.13,11.06-5.66,16.28-9.14-1.77,2.76-5.33,7.85-5.77,10.56Z"/>
          <path class="cls-11" d="M338.22,441.25c3.45-.12,2.69-.45,5.13,1.22.79.54,4.66,4.33,6.21,5.82-3.03,19.17-5.6.76-11.34-7.04Z"/>
          <g>
            <g>
              <path class="cls-33" d="M476.83,501.37c3.41-8.26-6.3-.65-6.92-.56-.81.12-12.01-2.06-15.74.05-2.66,22.17-18.31,28.48-19.11,30.15-.78,1.62.48,1.94,1.69,2.03-.3,1.64-1.82.39-2.3.54-1.5.47-2.18-1.68-2.32-1.64-6.71,1.86-12.87,5.14-20.16,4.96-16.28-5.12-36.39-9.26-38.19-28.62l-23.09-5.5c-5.07-6.88-14.99-15.83-20.48-23.32,2.7-2.42,4.83-4.98,8.11-6.74.97-.52,2.46-1.04,3.57-1.32-7.08,14.37,11.22,29.46,12.88,30.18.98.43,20.26,2.17,21.26,1.81,4.51-1.62,7.28-16.84,8.68-2.27-1.04,2.7-3.07,5.73-3.1,8.48-.17,13.03,29.88,19.32,39.59,15.94,2-12.33,18.2-.99,21.29-30.18,1.38.79,3.7.98,4.77,2.76-13.38,26.43,2.52,26.32,4.99-.44,4.81-.93,11.56,1.01,12.81.88,6.53-.69,14.91-4.29,19.92-3.93-4.32,4.49-7.73,6.39-8.11,6.74Z"/>
              <path class="cls-3" d="M384.7,501.12c1.74-4.54,6.13-11.85,10.07-14.95,18.08,6.41,38.67,5.43,44.87,7.43.16.05,1.78,1.16,2.83,1.76-3.09,29.19-19.28,17.85-21.29,30.18-9.7,3.38-39.76-2.91-39.59-15.94.04-2.75,2.06-5.77,3.1-8.48Z"/>
            </g>
            <g>
              <path class="cls-4" d="M349.02,468.76c-3.79,1.37-.64-1.89-3.08-.73-1.76.84-3.14,1.51-4.06,3.37-1.11.28-2.6.8-3.57,1.32,3.54-6.64,14.49-9.6,9.83-13.93,3.04.94,6.8,1.1,8.16-2.39,2.86,2.81,11.88,11.79,13.2,12.9q-8.61-3.68-17.23-7.36c-.94.07-2.97,5.8-3.25,6.82Z"/>
              <path class="cls-28" d="M384.7,501.12c-1.4-14.57-4.16.65-8.68,2.27-1,.36-20.28-1.38-21.26-1.81-1.66-.72-19.96-15.81-12.88-30.18.91-1.86,2.29-2.54,4.06-3.37-2.58,19.79-2.24,16.77,12.63,31.21,1.11.11,7.29-6.12,8.87-7.65,6.02,3.82,10.61-3.54,11.22-3.84.54-.27,4.43,3.36,8.38-5.6,2.38,1.19,7.31,3.86,7.72,4.01-3.94,3.1-8.33,10.42-10.07,14.95Z"/>
              <path class="cls-3" d="M367.44,491.59c9.06-8.79.19-1.89-5.4-2.37-21.08-1.81-11.55-17.06-11.34-18.43.13-.81-1.72-1.9-1.69-2.03.28-1.01,2.31-6.74,3.25-6.82q8.61,3.68,17.23,7.36c5.65,4.81,10.8,9.48,17.54,12.86-3.96,8.95-7.84,5.33-8.38,5.6-.61.3-5.2,7.65-11.22,3.84Z"/>
              <path class="cls-17" d="M367.44,491.59c-1.58,1.53-7.76,7.76-8.87,7.65-14.87-14.44-15.21-11.42-12.63-31.21,2.43-1.15-.71,2.1,3.08.73-.04.13,1.81,1.22,1.69,2.03-.21,1.36-9.75,16.61,11.34,18.43,5.59.48,14.46-6.42,5.4,2.37Z"/>
            </g>
          </g>
          <path class="cls-1" d="M517.36,281.1c-.09.08-1.84.53-2.3.54-.05-.28-3.05-3.38-3.25-4.57,20.54-53.12-54.39-80.52-76.98-29.72-36.2,1.73-98.77-14.63-104.89,37.38-.58,4.95,3.03,17.14.61,20.21-1.44-3.8-5.15-9.13-6.55-13.49.71-6.12-2.47-12.3.05-18.43,1.28-4.17,13.88-18.76,15.64-20.14.35-.28,7.22-4.51,7.62-4.69,1.18-.53,21.67-5.22,25.27-5.91,11.68-2.24,23.95-3.34,35.78-4.49,6.25-.61,12.44-.2,18.67-.98.16-.02-.54,2.19,2.96,1.25,21.03-36.07,69.83-35.32,88.32,2.6,3.88,7.95,5.02,20.77,9.41,28.81-4.68,4.55-9.39,10.71-10.36,11.63Z"/>
          <g>
            <path class="cls-33" d="M573.75,404.07c-.61,2.14-1.78,7.83-1.96,8.21-5.62,11.95-22.49,19.96-35.14,15.49l-2.96-1.25c9.03,1.83,5.34-1.33,5.74-1.34,1.12-.04,4.84,4.46,17.77-1.73,6.52-7.86,4.09-13.95,7.5-26.95,1.07-4.06,2.73-9.37,5.23-12.85.37,6.76-4.79,19.77,4.54,17.35-.23,1.03-.45,2.07-.73,3.08Z"/>
            <path class="cls-42" d="M574.49,400.99c-9.33,2.42-4.17-10.59-4.54-17.35-.32-5.72-3.77-9.14-1.95-14.56,9.1,9.11,8.82,9.3,7.67,22.43-.3,3.45-.4,6.02-1.17,9.48Z"/>
            <path class="cls-33" d="M539.44,425.18c4.63-12.08,18.21-14.75,19.14-16.59,2.57-5.13.67-14.86,6.13-12.1-3.42,13-.98,19.1-7.5,26.95-12.93,6.2-16.64,1.69-17.77,1.73Z"/>
          </g>
          <g>
            <path class="cls-33" d="M489.78,492.53c-3.25-1.4-2.95.15-4.84,2.1-5.01-.36-13.38,3.24-19.92,3.93-1.25.13-8-1.81-12.81-.88-2.47,26.76-18.36,26.87-4.99.44-1.07-1.79-3.38-1.98-4.77-2.76-1.05-.6-2.68-1.71-2.83-1.76,3.29-8.41,8.63,1.17,7.99-6.23,8.86-2.26,5.98,3.87,7.09,4.4.38.18,7.75-2.51,8.16-2.39,4.7,1.31-5.16,6.83,15.64,2.64,5.2-2.06,11.42-14.02,16.79-9.02-.9,1.11-4.09,7.94-5.52,9.53Z"/>
            <path class="cls-34" d="M343.35,442.47c-2.44-1.67-1.68-1.34-5.13-1.22-9.78-13.3-8.2-4.85-10.29-4.62-7.64.83.74-5.33.83-5.77.51-2.46-10.43-13.35-6.33-28.08.26,0,2.69-1.25,4.84-2.1,3.64,9.26,3.61,18.94,8.36,15.01,5.01,23.84,8.36,21.03,8.82,22.17.18.43-.84,2.8-1.1,4.62Z"/>
            <path class="cls-4" d="M327.28,400.68c1.55-.62,3.15-1.81,4.84-2.1-.02.11,1.92.06,1.93,1,0,.17-1.94.64-1.76,2.83.05.6,2.4,1.2,2.59,2.79.42,3.47.01,6.94.76,10.48-4.75,3.94-4.71-5.74-8.36-15.01Z"/>
            <g>
              <path class="cls-21" d="M564.71,396.5c-5.47-2.76-3.56,6.96-6.13,12.1-.92,1.84-14.5,4.51-19.14,16.59-.4.01,3.29,3.18-5.74,1.34l2.96,1.25-1.27.78c-15.53-3.6-7.26-1.52-19.7,23.51-6.16,12.38-11.65,20.17-20.38,30.94-5.37-5.01-11.59,6.96-16.79,9.02-20.8,4.19-10.94-1.34-15.64-2.64-.41-.11-7.78,2.58-8.16,2.39-1.11-.53,1.77-6.66-7.09-4.4.64,7.4-4.7-2.18-7.99,6.23-6.19-2-26.78-1.03-44.87-7.43-.41-.15-5.34-2.82-7.72-4.01-6.74-3.38-11.89-8.04-17.54-12.86-1.31-1.12-10.34-10.09-13.2-12.9-2.43-2.39-4.18-5.65-6.74-8.11-1.55-1.48-5.42-5.27-6.21-5.82.26-1.81,1.28-4.19,1.1-4.62-.46-1.13-3.81,1.68-8.82-22.17-.74-3.54-.34-7.02-.76-10.48-.19-1.59-2.54-2.19-2.59-2.79-.18-2.19,1.76-2.67,1.76-2.83-.01-.94-1.95-.89-1.93-1,.44-2.71,4-7.79,5.77-10.56,9.42-14.74,24.37-14.9,1.98-28.81-4.4,8.07-8.28,20.15-8.85,21.21-.81,1.51-11.29,6.35-4.5,9.77-7.78.36-11.19-.13-4.91,6.96-4.77.82-9.73-3.23-13.29,1.17-14.76-7.97-22.41-27.78-16.74-43.57,1.81-5.04,13.36-15.46,8.14-15.96,6.92-6.12,14.71-11.47,21.56-17.64,4.04-3.64,8-7.28,12.29-10.63-1.22-1.81-2.23-3.53-3.01-5.6,2.42-3.07-1.19-15.26-.61-20.21,6.11-52.01,68.69-35.65,104.89-37.38,22.58-50.8,97.52-23.4,76.98,29.72.2,1.19,3.2,4.29,3.25,4.57.32,1.69-2.27,2.25-1.88,3.35,1.23,3.44,24.43,31.35,28.63,66.47,2.95,4.29,15.47,6.91,26.17,17.62-1.81,5.42,1.64,8.84,1.95,14.56-2.5,3.48-4.16,8.79-5.23,12.85Z"/>
              <g>
                <path class="cls-17" d="M337.88,388.02c-5.22,3.48-9.7,8.01-16.28,9.14-6.28-7.09-2.87-6.6,4.91-6.96-6.8-3.42,3.68-8.27,4.5-9.77.57-1.06,4.45-13.14,8.85-21.21,22.38,13.91,7.44,14.07-1.98,28.81Z"/>
                <g>
                  <path class="cls-3" d="M415.1,473.66c.27-.3,2.09-4.3,3.89-7.21-.25-4.71-7.33-2.37-6.62-8.63,4.72-1.13,6.27.8,8.65-4.45,5.11,14.8,5.06,5.78,6.96,4.91.91-.41,12.7,13.26,9.7-2.03,11.25-5.34,2.63,1.75,2.71,2.27.12.8,6.57,9.75,6.55,13.49-18.59-8.33-6.98,7.89-23.7-2.93-2.39,1.76,7.11,9.86-5.52,9.53-1.27-.03-8.33-1.76-8.6-2.59,1.64-1.66,4.42-.64,5.99-2.37Z"/>
                  <path class="cls-36" d="M415.1,473.66c-1.03-.16-2.05-.64-3.08-.73-2.43-2.01-4.72-4.16-7.23-6.06,2-3.05-2.6-6.76-2.64-7.14-.03-.34,1.37-6.41,1.59-6.67.44-.55,12.47-1.96,12.27-1.42-.32,3.22-3.21,2.34-3.64,6.18-.7,6.26,6.37,3.92,6.62,8.63-1.79,2.91-3.61,6.9-3.89,7.21Z"/>
                  <path class="cls-36" d="M421.01,453.37c-1.51-4.38-2.5-13.4,3.74-8.87,2.29,1.66.64,5.41.83,5.62.78.87,6.8,1.54,12.1,6.13,3,15.29-8.79,1.61-9.7,2.03-1.9.86-1.86,9.89-6.96-4.91Z"/>
                  <path class="cls-3" d="M398.58,461.04c1.86,4.95,5.87,5.56,6.21,5.82,2.52,1.9,4.8,4.05,7.23,6.06-5.41-.49-21.81-8.28-18.94-11.56.51-.58,4.13-.01,5.5-.32Z"/>
                  <path class="cls-3" d="M404.79,466.86c-.34-.26-4.35-.86-6.21-5.82.19-.04,1.1-2.35,3.57-1.32.04.38,4.64,4.09,2.64,7.14Z"/>
                  <path class="cls-25" d="M423.28,484.82c-.08,2.65-8.14-.12-8.46-.93-1.73-4.54,6.87-.06,8.46.93Z"/>
                  <path class="cls-25" d="M485.46,437.81c-.03.27-4.54.56-4.99.44-4.42-1.18,5.25-2.5,4.99-.44Z"/>
                  <path class="cls-2" d="M495.53,400.08c-.02.16-1.99,1.57-2.93.93-1.44-.98,3.17-2.66,2.93-.93Z"/>
                </g>
              </g>
            </g>
          </g>
        </g>
        <g>
          <path class="cls-46" d="M281.68,396.32c-4.73-.37-7.27-3.38-9.51-3.35-7.14,3.76-6.22,6.73-6.57,7.11-.73.77-2.84,5.59-5.3,6.33-3.07.92-6.04-.51-8.97-1.05-2.51-.47-4.79-1.77-7.43-.68,2.69-5.37,2.73-14.23-5.01-13.12-.64.09-1.19,7.05-8.24-4.13,13.3-4.61,12.88,14.49,24.95-11.41,10.97,1.9,17.43,2.14,27.35-3.25.64,6.57,6.55,18.26,12.02,22.39-4.36.55-8.88,1.51-13.29,1.17Z"/>
          <path class="cls-47" d="M265.6,400.09c.36-.38-.56-3.35,6.57-7.11,2.24-.03,4.78,2.98,9.51,3.35q-8.04,1.88-16.08,3.76Z"/>
        </g>
        <g>
          <path class="cls-52" d="M261.47,144.23q-2.87.67-5.74,1.34c9.24-22.55,9.71-44.59-10.53-60.53-8.53-6.72-14.93-7.97-24.95-11.37-3.37,1.82-8.15.01-11.51.51-11.86,1.77-29.69,12.81-34.92,23.68-7.58,15.73-5.78,28.3.36,44.01.03.09-2.01-.13-1.39,1.3,1.44,3.31,19.06,22.93,20.35,23.83-2.8-3.06-2.2-.81-4.35.05l.22-3.2c-1.05-.34-2.45-.44-2.57-.61-5.12-7.33-18.42-20.57-21.06-29.96-.28-1.01-1.67-19.93-1.51-20.97,6.8-43.91,69.13-64.32,99.12-15.44,1.29,2.94,4.81,12.77,5.03,15.3.73,8.09-2.17,25.42-6.55,32.06Z"/>
          <path class="cls-13" d="M216.45,169.3c-10.87-2.08-18.65-5.56-27.52-11.98-2.55-5.82,2.65-9.38-4.74-11.97,4.17-4.52-6.5-18.3-6.52-22.7,2.51-15.91,6.99-29.01,20.29-39.64,2.39-1.91,14.07-2.32,10.78-8.82,3.36-.5,8.14,1.31,11.51-.51,10.02,3.39,16.42,4.64,24.95,11.37-7.83,1.16-2.24,5.4-1.17,9.48-6.14,2.41-7.95-3.88-13.56.02-36.88-20.7-49.28,37.45-25.08,46.09,10.44,3.72,31.6-18.23,14.74-9.5,7.81-11.46,17.61-6.69,17.11-26.29,2.81-1.39,6.28-2.76,7.87-5.72,3.91,3.81.17,10.03,8.77,6.43-1.63,16.64-9.99,32.76-14.42,49.17-8,5.31-21.64,10.94-23,14.59Z"/>
          <path class="cls-47" d="M258.43,147.84c-.11.14-1.86-.97-3.45.81-7.48,8.38-15.87,19.18-27.79,21.04-3.63.57-7.24.28-10.75-.39,1.35-3.65,15-9.27,23-14.59,4.44-16.41,12.79-32.53,14.42-49.17-8.61,3.6-4.87-2.62-8.77-6.43,1.74-3.26-.73-3.28-1.07-4.59-1.06-4.08-6.66-8.33,1.17-9.48,20.24,15.95,19.77,37.98,10.53,60.53q2.87-.67,5.74-1.34c-.98,1.23-2.03,2.41-3.03,3.62Z"/>
          <path class="cls-31" d="M184.19,145.34c-.33-.11,1.72,1.86-5.62.83-.9-1.12-3.01-2.32-4.4-4.3-6.15-15.71-7.94-28.28-.36-44.01,5.24-10.87,23.07-21.91,34.92-23.68,3.29,6.5-8.39,6.91-10.78,8.82-13.29,10.62-17.77,23.72-20.29,39.64.02,4.41,10.7,18.18,6.52,22.7Z"/>
          <path class="cls-46" d="M245.1,99.11c-1.59,2.96-5.06,4.33-7.87,5.72-8.63-8.84-16.94-15.43-29.79-9.26-15.12,7.26-13.87,41.7,4.3,41.15,3.49-.11,5.08-3.89,8.38-5.6,16.87-8.72-4.3,13.23-14.74,9.5-24.21-8.64-11.81-66.79,25.08-46.09,5.61-3.91,7.42,2.39,13.56-.02.34,1.31,2.82,1.34,1.07,4.59Z"/>
          <path class="cls-31" d="M188.93,157.32c-7.72-5.59-9.06-9.53-10.36-11.14,7.34,1.03,5.29-.94,5.62-.83,7.39,2.59,2.19,6.15,4.74,11.97Z"/>
          <g>
            <path class="cls-41" d="M220.12,131.13c-3.3,1.71-4.89,5.49-8.38,5.6-18.17.55-19.42-33.89-4.3-41.15,12.85-6.17,21.16.42,29.79,9.26.5,19.6-9.3,14.83-17.11,26.29Z"/>
            <path class="cls-6" d="M231.53,110.53c.42,12.06-22.73,24.74-22.68,8.7.06-20.13,22.3-19.51,22.68-8.7Z"/>
          </g>
        </g>
        <g>
          <path class="cls-52" d="M226.71,171.74c-6.69.82-43.02,36.97-51.59,43.57,8.85,16.62,3.17,38.25-12.64,48.51-3.37,2.19-2.61,2.51-2.79,2.59-13.91,6.31-33.09.14-42.86-11.29-.1-.11-.87-1.56-1.56-2.54-16.63-23.64-7.06-47.86,19.19-57.79-2.21-4.42-3.81-9.09-5.4-13.76l2.3-.54c2.2,4.85,5.11,9.52,6.82,14.64,6.42-1.63,16.19,1.48,22.31,4.23.1.04-.81,1.75.02,2.17.23.12,1.68-1.82,3.84-.17.21.16-1.83-.3,3.37,4.06.33.28,1.9,3.72,5.45,6.72,13.56-11.94,26.77-24.67,40.67-36.41-.34-.8-9.81-2.95-15.81-6.48-2.37-1.39-4.67-2.1-4.89-2.25-1.29-.9-18.92-20.51-20.35-23.83-.62-1.42,1.43-1.21,1.39-1.3,1.39,1.98,3.5,3.18,4.4,4.3,1.3,1.61,2.64,5.56,10.36,11.14,8.86,6.42,16.64,9.9,27.52,11.98,3.51.67,7.12.96,10.75.39l-.49,2.05Z"/>
          <g>
            <path class="cls-39" d="M113.56,236.98c2.53-5.92,7.5-1.21,8.04-1.88,3.09-3.86-1.56-9.71-1.05-13.81l5.62-.83c-1.19,3.63.55,6.32.59,6.65.11.92-1.03,5.85-.56,6.92,4.28,9.84,18.86,7.49,27.17,4.3,6.07-17.73,9.6-33.45-12.58-38.25,25.68-.13,41.76,26.84,27.05,50.37-12.35,19.76-46.64,15.8-54.27-13.47Z"/>
            <path class="cls-46" d="M126.76,227.11l4.84-2.1c-.04,2.36,5.15,8.7,7.01,9.26,10.52,3.17,19.94-16.56,7.21-18.89,1.57-14.29-6.2-5.16-6.96-4.91-.86.28-8.97-1.35-12.68,9.99l-5.62.83c.7-5.6,4.51-11.53,10.24-11.12-1.87-6.28,3.65-4.57,5.4-9.02,1.5-.29,3.52-1.07,4.59-1.07,22.18,4.79,18.65,20.51,12.58,38.25-8.31,3.18-22.89,5.54-27.17-4.3-.46-1.07.67-6,.56-6.92Z"/>
            <path class="cls-32" d="M120.55,221.29c-.51,4.1,4.14,9.95,1.05,13.81-.54.67-5.51-4.03-8.04,1.88-4.52-17.34,4.93-32.34,22.63-35.82-1.76,4.45-7.27,2.74-5.4,9.02-5.73-.41-9.55,5.52-10.24,11.12Z"/>
            <path class="cls-46" d="M145.82,215.38c-6.65-1.22-14.1,2.27-14.22,9.63l-4.84,2.1c-.04-.33-1.78-3.02-.59-6.65,3.72-11.34,11.83-9.72,12.68-9.99.76-.25,8.53-9.38,6.96,4.91Z"/>
            <path class="cls-6" d="M131.6,225.01c.12-7.35,7.57-10.85,14.22-9.63,12.73,2.33,3.31,22.06-7.21,18.89-1.87-.56-7.05-6.9-7.01-9.26Z"/>
          </g>
        </g>
        <g>
          <path class="cls-52" d="M148.78,480.72c-1.32,1.78-15.65,13.32-18.77,15.05-2.9,1.61-6.5,3.33-9.68,4.2-.59.16-1.69.41-2.3.54-5.36,1.08-18.98,1.82-24.05.78-6.39-1.31-15.84-6.55-21.36-10.51-1.48-1.06-2.71-1.65-2.83-1.76-27.81-23.86-24.62-69.93,7.07-88.88-6.72-8.03-20.05-49.93-26.56-52.42-2.2.73-5.49.26-7.43-.68,2.33-2.85,7.12-3.13,6.06-7.23,17.43,1.41,29.66-29.68,2.67-36.24-3.29-.8-12.62,6.12-6.96-4.91,2.48-.36,2.18-.53,2.3-.54,1.88-.07,3.48-.07,5.38.2,4.16.58,8.38,1.86,12.07,3.96.63.36,2.6,1.57,2.83,1.76.49.4,7.13,9.79,7.28,10.41.04.16.3,3.16.29,3.32-.46,10.29-6.45,23.78-16.45,28.08q11.09,25.15,22.18,50.29l1.81,1.52c23.06-13.38,59.11-2.2,71.62,20.31,3.22,5.78,5.2,19.96,5.54,26.81.05.95,1.93.89,1.93,1,.02,8.93-7.24,27.65-12.66,34.94Z"/>
          <g>
            <path class="cls-37" d="M115.15,494.4c-6.43,3.96-24.04,1.93-29.69-.56-.8-.35.26-1.88-.54-2.3-1.56-.82-5.04-.71-6.16-1.47-.84-.57.09-2.09-.02-2.17l-.59-6.65c4.51,4.44,12.15,5.8,11.12,10.24,15.4,2.4,10.39-.03,12.02-.39,5.26-1.15,10.63-1.49,14.91-5.67,10.98-10.73,32.26-63.92,13.84-78.59-3.5-2.78-14.83-4.58-13.9-7.65,11.5,2.55,15.6,4.2,24.19,12.27,5.62,16.66,3.53,34.45-2.37,50.95-3.47,9.69-13.85,26.49-22.8,31.99Z"/>
            <path class="cls-31" d="M78.74,487.9c-7.74-5.62-.63-.41-4.62-1.1-2.78-.48-1.52-5.83-2.91-8.28-1.16-2.04-4.52-5.63-5.91-2.49-3.51-4.55-4.84-7.06-6.79-12.46,1.26-4.31,3.13-12.92-2.64-7.14-1.69-8.94.25-9.7.27-10.24.03-.87-1.87-.66-1.81-1.52.79-10.67,10.32-29.92,18.53-36.8,2.13-1.79,14.38-6.97,18.21-8.14-4.4,6.85.79,8.24-9.75,9.07-6.05,9.26-14.66,15.29-14.81,25.76-2.35-10.24-1.91,21.09-.74,25.85.3,1.21,10.1,20.49,12.39,20.85l.59,6.65Z"/>
            <path class="cls-47" d="M115.15,494.4c8.96-5.5,19.34-22.3,22.8-31.99,5.91-16.51,7.99-34.29,2.37-50.95,20.75,19.48,7.09,48.01-.62,70.89-6.42,2.35-17.8,16.35-24.56,12.05Z"/>
            <path class="cls-18" d="M65.3,476.02c1.39-3.14,4.75.45,5.91,2.49-1.01,7.9-3.56.56-5.91-2.49Z"/>
            <path class="cls-18" d="M58.51,463.56c-.13-.36-1.33-.23-2.64-7.14,5.77-5.78,3.9,2.82,2.64,7.14Z"/>
            <g>
              <path class="cls-13" d="M78.16,481.25c-2.29-.36-12.09-19.63-12.39-20.85-1.17-4.77-1.61-36.09.74-25.85.15-10.46,8.76-16.49,14.81-25.76,10.54-.83,5.35-2.22,9.75-9.07.88-.27,2,.66,2.32,1.64,4.53-7.67,15.9-3.69,22.75-2.17-.92,3.07,10.41,4.87,13.9,7.65,18.42,14.67-2.85,67.86-13.84,78.59-4.28,4.18-9.65,4.52-14.91,5.67-1.64.36,3.37,2.79-12.02.39,1.04-4.44-6.61-5.8-11.12-10.24Z"/>
              <g>
                <path class="cls-41" d="M126.08,430.3c-1.83,13-22.44,30.05-27.42,30.89-21.28,3.57-20.98-36.09-1.51-43.74,17.57-6.9,25.6,9.27,28.98,5.82-.96,5.77,0,6.69-.05,7.04Z"/>
                <path class="cls-6" d="M110.03,447.63c-2.34,2.8-11.54,12.57-14.98,10.53-5-2.96,7.94-1.8-2.79-8.8,4.17-9.14,9.52-29.81,23.95-20.87,8.08,5-3.13,15.48-6.18,19.13Z"/>
                <path class="cls-41" d="M110.03,447.63c2.94-1.73,1.39,4.07-.22,3.2-.71-.38.07-3.12.22-3.2Z"/>
              </g>
            </g>
          </g>
        </g>
      </g>
    </g>
  </g>
</svg>